<svg width="40" height="40" viewBox="0 0 40 40" fill="none" xmlns="http://www.w3.org/2000/svg">
<g clip-path="url(#clip0_681_1070)">
<path d="M6.66699 13.4166C6.66699 11.6264 7.37815 9.90953 8.64402 8.64365C9.90989 7.37778 11.6268 6.66663 13.417 6.66663H26.917C28.7072 6.66663 30.4241 7.37778 31.69 8.64365C32.9558 9.90953 33.667 11.6264 33.667 13.4166V26.9166C33.667 28.7068 32.9558 30.4237 31.69 31.6896C30.4241 32.9555 28.7072 33.6666 26.917 33.6666H13.417C11.6268 33.6666 9.90989 32.9555 8.64402 31.6896C7.37815 30.4237 6.66699 28.7068 6.66699 26.9166V13.4166Z" stroke="#FFFEFE" stroke-linecap="round" stroke-linejoin="round"/>
<path d="M15 20C15 21.3261 15.5268 22.5979 16.4645 23.5355C17.4021 24.4732 18.6739 25 20 25C21.3261 25 22.5979 24.4732 23.5355 23.5355C24.4732 22.5979 25 21.3261 25 20C25 18.6739 24.4732 17.4021 23.5355 16.4645C22.5979 15.5268 21.3261 15 20 15C18.6739 15 17.4021 15.5268 16.4645 16.4645C15.5268 17.4021 15 18.6739 15 20Z" stroke="#FFFEFE" stroke-linecap="round" stroke-linejoin="round"/>
<path d="M27.5 12.5V12.5167" stroke="#FFFEFE" stroke-linecap="round" stroke-linejoin="round"/>
</g>
<defs>
<clipPath id="clip0_681_1070">
<rect width="40" height="40" fill="white"/>
</clipPath>
</defs>
</svg>
