<svg width="130" height="28" viewBox="0 0 130 28" fill="none" xmlns="http://www.w3.org/2000/svg">
<path fillRule="evenodd" clipRule="evenodd" d="M122.205 12.833C119.191 12.833 116.895 14.9612 116.895 17.4122C116.895 19.8631 119.191 21.9913 122.205 21.9913L122.205 21.9913C122.711 21.992 123.215 21.9293 123.708 21.8046C123.811 21.7785 123.919 21.7966 124.01 21.8551L125.436 22.7718V21.2795C125.436 21.1346 125.503 20.9991 125.615 20.918C126.796 20.0629 127.515 18.7966 127.515 17.4122C127.515 14.9612 125.218 12.833 122.205 12.833ZM116.081 17.4122C116.081 14.324 118.902 11.9608 122.205 11.9608C125.507 11.9608 128.328 14.324 128.328 17.4122C128.328 19.0644 127.508 20.5215 126.249 21.5061V23.5419C126.249 23.6991 126.17 23.844 126.043 23.9214C125.915 23.9988 125.759 23.9967 125.633 23.9159L123.731 22.6927C123.229 22.8069 122.717 22.8642 122.204 22.8635L122.205 22.4274V22.8635C122.204 22.8635 122.204 22.8635 122.204 22.8635C118.902 22.8633 116.081 20.5001 116.081 17.4122Z" fill="#FFD600"/>
<path fillRule="evenodd" clipRule="evenodd" d="M114.409 6.14594C110.554 6.14594 107.54 9.00491 107.54 12.3969C107.54 14.0768 108.27 15.6138 109.479 16.7484C109.568 16.8312 109.618 16.9509 109.618 17.0767V19.4284L111.485 18.2284C111.587 18.1623 111.712 18.1482 111.826 18.1899C112.657 18.4951 113.529 18.6498 114.408 18.6478L114.409 18.6478C115.169 18.6478 115.9 18.5352 116.581 18.3278C116.797 18.262 117.022 18.3965 117.084 18.6282C117.145 18.8599 117.019 19.101 116.803 19.1669C116.05 19.3963 115.244 19.5199 114.41 19.52C113.504 19.5221 112.605 19.3733 111.743 19.0792L109.421 20.5724C109.295 20.6532 109.139 20.6553 109.011 20.5779C108.884 20.5005 108.805 20.3555 108.805 20.1984V17.2712C107.524 16.0058 106.726 14.2937 106.726 12.3969C106.726 8.40187 110.227 5.27371 114.409 5.27371C118.502 5.27371 121.937 8.26637 122.091 12.1387C122.091 12.1449 122.091 12.1511 122.091 12.1573V12.4169C122.091 12.6578 121.909 12.853 121.685 12.853C121.46 12.853 121.278 12.6578 121.278 12.4169V12.1667C121.142 8.87681 118.174 6.14594 114.409 6.14594Z" fill="#FFD600"/>
<path d="M12.1903 24.7902H10.1732V15.3239H2.00249V24.7902H0V4.33725H2.00249V13.4901H10.1732V4.33725H12.1903V24.7902Z" fill="#001966"/>
<path d="M30.1689 24.7902H28.0202L26.2224 18.9443H18.6801L16.9115 24.7902H14.7629L21.1065 4.33725H23.8252L30.1689 24.7902ZM25.6523 17.0479L22.4513 6.50009L19.2502 17.0479H25.6523Z" fill="#001966"/>
<path d="M37.7696 4.33725H39.7867V22.9565H43.587V4.33725H45.5895V24.7902H31.9667V4.33725H33.9692V22.9565H37.7696V4.33725Z" fill="#001966"/>
<path d="M58.9241 26.3844C55.8907 26.3844 53.4659 25.4108 51.6499 23.4635C49.8338 21.5376 48.9258 18.9591 48.9258 15.7279C48.9258 11.705 50.1531 8.20634 52.6078 5.23194C55.1822 2.10776 58.3154 0.545662 62.0074 0.545662C64.023 0.545662 65.7093 1.08063 67.0664 2.15055C68.6031 3.34887 69.3714 5.00726 69.3714 7.12572C69.3714 8.62361 68.8525 9.88613 67.8148 10.9133C66.777 11.919 65.5597 12.4219 64.1627 12.4219C63.2048 12.4219 62.3566 12.1437 61.6182 11.5873C60.82 10.9454 60.4208 10.1108 60.4208 9.08368C60.4208 7.90676 60.6503 7.3183 61.1093 7.3183C61.4686 7.3183 61.6482 7.48949 61.6482 7.83187C61.6482 7.96026 61.6182 8.15285 61.5584 8.40963C61.4985 8.66641 61.4686 8.8697 61.4686 9.01949C61.4686 9.76844 61.728 10.3355 62.2469 10.7207C62.7657 11.1058 63.4043 11.2984 64.1627 11.2984C65.3401 11.2984 66.328 10.9133 67.1263 10.1429C67.9445 9.32977 68.3536 8.32403 68.3536 7.12572C68.3536 5.34964 67.705 3.95873 66.4078 2.953C65.2304 2.07566 63.7636 1.63699 62.0074 1.63699C58.6946 1.63699 55.8507 3.01719 53.4759 5.77761C51.141 8.49522 49.9735 11.6622 49.9735 15.2786C49.9735 18.1888 50.7917 20.5854 52.4282 22.4685C54.0646 24.3515 56.2399 25.2931 58.954 25.2931C60.4308 25.2931 61.8078 25.0042 63.085 24.4264C64.6616 23.7417 65.7293 22.7895 66.2881 21.5697C66.6673 20.7138 66.9766 20.2858 67.2161 20.2858C67.5753 20.2858 67.7549 20.4677 67.7549 20.8315C67.7549 21.1311 67.4655 21.7195 66.8868 22.5969C65.1905 25.1219 62.5362 26.3844 58.9241 26.3844Z" fill="#FFD600"/>
<path d="M77.2553 24.0092C75.3794 24.0092 74.4414 23.1211 74.4414 21.3451C74.4414 20.7031 74.5711 19.9541 74.8306 19.0982C75.11 18.2423 75.4193 17.3649 75.7585 16.4662C76.1178 15.5674 76.4171 14.7329 76.6566 13.9626C76.6965 13.7914 76.7264 13.6309 76.7464 13.4811C76.7664 13.3099 76.7763 13.1601 76.7763 13.0317C76.7763 12.1972 76.3972 11.7799 75.6388 11.7799C73.6431 11.7799 71.3581 14.9576 68.7837 21.313C68.7039 21.5483 68.5841 21.8479 68.4245 22.2117C68.2848 22.5541 68.1151 22.9606 67.9156 23.4314C67.8158 23.6026 67.696 23.6882 67.5563 23.6882C67.1772 23.6882 66.9876 23.5063 66.9876 23.1425C66.9876 23.0997 67.0275 22.9392 67.1073 22.6611C67.1672 22.3829 67.267 21.987 67.4067 21.4734C67.7459 20.3179 68.175 18.8735 68.6939 17.1402C69.2327 15.407 69.8613 13.3955 70.5798 11.1058C70.2605 10.9775 69.9611 10.7635 69.6817 10.4639C69.4023 10.1643 69.2626 9.86473 69.2626 9.56515C69.2626 9.22277 69.4323 9.05159 69.7715 9.05159C69.9112 9.05159 70.0709 9.16928 70.2505 9.40466C70.3503 9.57585 70.5598 9.81123 70.8791 10.1108C71.3381 8.8483 71.6974 7.89606 71.9568 7.25411C72.2162 6.59075 72.3559 6.22698 72.3759 6.16278C72.6752 5.41383 72.9746 4.72908 73.2739 4.10852C73.5733 3.46656 73.8826 2.8995 74.2019 2.40734C75.1998 0.802445 76.1477 0 77.0457 0C77.6045 0 78.0136 0.28888 78.2731 0.866641C78.5126 1.31601 78.6323 1.86167 78.6323 2.50363C78.6323 3.42377 78.4228 4.3974 78.0037 5.42453C77.3651 6.96523 76.477 8.30264 75.3395 9.43676C74.0223 10.6993 72.765 11.3198 71.5676 11.2984C71.2882 12.0902 71.0188 12.8926 70.7594 13.7058C70.5 14.5189 70.2505 15.3428 70.011 16.1773C71.9867 12.5182 73.8726 10.6886 75.6687 10.6886C77.1455 10.6886 77.8839 11.4161 77.8839 12.8712C77.8839 13.6844 77.6644 14.6687 77.2254 15.8242C77.1056 16.1666 76.9061 16.6695 76.6267 17.3328C76.3672 17.9962 76.1178 18.6809 75.8783 19.3871C75.6588 20.0932 75.549 20.6817 75.549 21.1525C75.549 22.3722 76.1477 22.982 77.3451 22.982C78.2831 22.982 79.0614 22.7146 79.68 22.1796C80.2987 21.6232 80.8774 20.885 81.4163 19.9648C81.5759 19.6653 81.6957 19.4513 81.7755 19.3229C81.8753 19.1945 82.0249 19.1303 82.2245 19.1303C82.444 19.1303 82.5538 19.2694 82.5538 19.5476C82.5538 19.7402 82.5139 19.9113 82.4341 20.0611C81.7356 21.4306 80.9173 22.4364 79.9794 23.0783C79.0414 23.6989 78.1334 24.0092 77.2553 24.0092ZM71.9568 10.2071C72.9347 9.99312 73.8726 9.38326 74.7707 8.37753C75.5889 7.50019 76.2674 6.46236 76.8063 5.26404C77.2653 4.17272 77.4948 3.20978 77.4948 2.37524C77.4948 1.58349 77.3052 1.18762 76.926 1.18762C76.4471 1.18762 75.8384 1.80818 75.1 3.04929C74.2019 4.54719 73.1542 6.93313 71.9568 10.2071Z" fill="#FFD600"/>
<path d="M91.8332 23.945C91.0948 23.945 90.4761 23.7096 89.9772 23.2388C89.4783 22.7467 89.2687 22.0405 89.3486 21.1204C88.1312 22.982 86.6644 23.9129 84.9481 23.9129C83.8505 23.9129 83.0323 23.4528 82.4935 22.5327C82.0544 21.8051 81.8349 20.8208 81.8349 19.5797C81.8349 19.3443 81.8449 19.1089 81.8648 18.8735C81.8848 18.6167 81.9147 18.3707 81.9546 18.1353C82.0943 17.2793 82.3637 16.4555 82.7629 15.6637C83.162 14.8506 83.6809 14.0481 84.3195 13.2564C85.7564 11.5231 87.2431 10.6565 88.7798 10.6565C89.598 10.6565 90.2766 10.9133 90.8154 11.4268C91.3542 11.919 91.6236 12.6144 91.6236 13.5132C91.6236 13.877 91.5338 14.23 91.3542 14.5724C91.7733 14.5938 91.9429 14.7971 91.8631 15.1823L90.9052 18.1032C90.5859 19.0661 90.4262 19.9434 90.4262 20.7352C90.4262 21.4627 90.5659 22.0298 90.8453 22.4364C91.1447 22.8429 91.5438 23.0462 92.0427 23.0462C92.3221 23.0462 92.6314 22.9606 92.9707 22.7895C93.31 22.6183 93.6991 22.3294 94.1382 21.9228C94.4375 21.6446 94.7169 21.3344 94.9764 20.992C95.2557 20.6496 95.4952 20.3072 95.6948 19.9648C95.8145 19.7723 95.9443 19.5904 96.084 19.4192C96.2236 19.2266 96.3633 19.1303 96.503 19.1303C96.7425 19.1303 96.8623 19.2694 96.8623 19.5476C96.8623 19.6546 96.8423 19.7616 96.8024 19.8685C96.7824 19.9541 96.7525 20.0183 96.7126 20.0611C96.4531 20.5105 96.1638 20.9492 95.8445 21.3771C95.5252 21.8051 95.1859 22.201 94.8267 22.5648C94.3477 23.0355 93.8488 23.3886 93.3299 23.624C92.8111 23.838 92.3121 23.945 91.8332 23.945ZM82.8527 19.7402C82.8527 21.7944 83.5911 22.8216 85.0679 22.8216C86.3251 22.8216 87.4128 22.1796 88.3308 20.8957C88.6102 20.4891 88.8995 19.9755 89.1989 19.355C89.4982 18.7344 89.7876 18.0069 90.067 17.1723C90.1468 16.9583 90.2267 16.7123 90.3065 16.4341C90.4063 16.1345 90.526 15.8028 90.6657 15.4391C90.2666 15.76 89.8575 15.9205 89.4384 15.9205C88.7199 15.9205 88.3607 15.7065 88.3607 15.2786C88.3607 14.9148 88.5303 14.7329 88.8696 14.7329C88.9295 14.7329 89.0093 14.7543 89.1091 14.7971C89.2288 14.8185 89.3186 14.8292 89.3785 14.8292C89.6779 14.8292 89.9572 14.6901 90.2167 14.4119C90.4761 14.1337 90.6058 13.8342 90.6058 13.5132C90.6058 12.3363 89.9872 11.7478 88.7499 11.7478C87.5126 11.7478 86.2752 12.5182 85.0379 14.0588C83.8605 15.4712 83.172 16.8942 82.9724 18.3279C82.9325 18.5632 82.9026 18.7986 82.8826 19.034C82.8627 19.2694 82.8527 19.5048 82.8527 19.7402Z" fill="#FFD600"/>
<path d="M98.2262 24.1376C96.6895 24.1376 95.9212 22.8109 95.9212 20.1574C95.9212 17.932 96.3702 15.2037 97.2683 11.9725H96.3103C95.991 11.9725 95.8314 11.7906 95.8314 11.4268C95.8314 11.063 95.991 10.8812 96.3103 10.8812H97.5975C97.857 10.0466 98.1264 9.26557 98.4058 8.53802C98.6852 7.81047 98.9745 7.14711 99.2739 6.54796C100.172 4.68628 101.05 3.75544 101.908 3.75544C102.587 3.75544 102.926 4.33321 102.926 5.48873C102.926 6.10928 102.826 6.77264 102.627 7.47879C102.487 7.97096 102.327 8.50592 102.148 9.08368C101.968 9.64005 101.759 10.2392 101.519 10.8812H102.986C103.325 10.8812 103.495 11.063 103.495 11.4268C103.495 11.7906 103.325 11.9725 102.986 11.9725H101.04C100.022 14.4119 98.6752 16.8514 96.9988 19.2908C96.9789 19.462 96.9689 19.6332 96.9689 19.8044C96.9689 19.9541 96.9689 20.1039 96.9689 20.2537C96.9689 22.1582 97.4678 23.1104 98.4657 23.1104C99.244 23.1104 99.9325 22.8109 100.531 22.2117C101.15 21.6125 101.709 20.8636 102.208 19.9648C102.407 19.6011 102.577 19.355 102.716 19.2266C102.856 19.0982 102.966 19.034 103.046 19.034C103.285 19.034 103.405 19.1945 103.405 19.5155C103.405 19.5583 103.375 19.6653 103.315 19.8365C103.275 19.9862 103.235 20.0825 103.195 20.1253C102.617 21.3023 101.908 22.2652 101.07 23.0141C100.232 23.7631 99.2839 24.1376 98.2262 24.1376ZM98.7051 10.8812H100.352C100.671 10.1322 100.93 9.46886 101.13 8.8911C101.349 8.31334 101.519 7.82117 101.639 7.4146C101.798 6.77264 101.878 6.23768 101.878 5.80971C101.878 5.33894 101.788 5.10355 101.609 5.10355C101.29 5.10355 100.84 5.68131 100.262 6.83684C100.002 7.3718 99.7429 7.98166 99.4834 8.66641C99.224 9.32977 98.9646 10.068 98.7051 10.8812ZM97.2383 17.1723C97.6973 16.3592 98.1463 15.5246 98.5854 14.6687C99.0244 13.7914 99.4535 12.8926 99.8726 11.9725H98.3759C98.1164 12.8284 97.8869 13.6951 97.6873 14.5724C97.5077 15.4284 97.3581 16.295 97.2383 17.1723Z" fill="#FFD600"/>
</svg>
