<svg width="40" height="40" viewBox="0 0 40 40" fill="none" xmlns="http://www.w3.org/2000/svg">
<g clip-path="url(#clip0_39_312)">
<path d="M27.4997 16.6667C32.563 16.6667 36.6663 20.025 36.6663 24.1667C36.6663 26.495 35.3697 28.575 33.333 29.95V33.3333L30.0597 31.37C29.2208 31.5681 28.3616 31.6677 27.4997 31.6667C22.4363 31.6667 18.333 28.3083 18.333 24.1667C18.333 20.025 22.4363 16.6667 27.4997 16.6667Z" stroke="#001966" stroke-linecap="round" stroke-linejoin="round"/>
<path d="M18.6613 26.1633C17.5113 26.49 16.278 26.6667 14.9997 26.6667C13.5187 26.6699 12.0475 26.4265 10.6463 25.9467L6.66634 28.3333V23.665C4.60467 21.8617 3.33301 19.3917 3.33301 16.6667C3.33301 11.1433 8.55634 6.66667 14.9997 6.66667C21.303 6.66667 26.438 10.95 26.6663 16.3083V16.6967" stroke="#001966" stroke-linecap="round" stroke-linejoin="round"/>
</g>
<defs>
<clipPath id="clip0_39_312">
<rect width="40" height="40" fill="white"/>
</clipPath>
</defs>
</svg>
