<svg width="100" height="100" viewBox="0 0 100 100" fill="none" xmlns="http://www.w3.org/2000/svg">
<g id="Business">
<path id="Vector" opacity="0.2" d="M91.9359 23.2143H8.06489C6.35382 23.2143 4.71283 23.9668 3.50292 25.3064C2.293 26.6459 1.61328 28.4627 1.61328 30.3572V35.7143C1.61328 33.8199 2.293 32.0031 3.50292 30.6635C4.71283 29.324 6.35382 28.5714 8.06489 28.5714H91.9359C93.6469 28.5714 95.2879 29.324 96.4978 30.6635C97.7078 32.0031 98.3875 33.8199 98.3875 35.7143V30.3572C98.3875 28.4627 97.7078 26.6459 96.4978 25.3064C95.2879 23.9668 93.6469 23.2143 91.9359 23.2143Z" fill="#FFFEFE"/>
<path id="Vector_2" opacity="0.15" d="M5 70H44V81H5V70Z" fill="#001966"/>
<path id="Vector_3" opacity="0.15" d="M56 70H95V81H56V70Z" fill="#001966"/>
<path id="Vector_4" opacity="0.15" d="M44 77H56V81H44V77Z" fill="#001966"/>
<path id="Vector_5" d="M33.8713 23.2143V16.0714C33.8713 12.2826 35.2308 8.64899 37.6506 5.96989C40.0704 3.2908 43.3524 1.78571 46.7746 1.78571H53.2262C56.6483 1.78571 59.9303 3.2908 62.3501 5.96989C64.77 8.64899 66.1294 12.2826 66.1294 16.0714V23.0714M56.452 69.6428H98.3875V30.3571C98.3875 28.4627 97.7078 26.6459 96.4978 25.3064C95.2879 23.9668 93.6469 23.2143 91.9359 23.2143H8.06489C6.35382 23.2143 4.71283 23.9668 3.50292 25.3064C2.293 26.6459 1.61328 28.4627 1.61328 30.3571V69.6428H43.5488" stroke="#001966" stroke-linecap="round" stroke-linejoin="round"/>
<path id="Vector_6" d="M95.1614 69.6429V98.2143H4.83887V69.6429" stroke="#001966" stroke-linecap="round" stroke-linejoin="round"/>
<path id="Vector_7" d="M43.5488 62.5H56.4521V76.7857H43.5488V62.5Z" stroke="#001966" stroke-linecap="round" stroke-linejoin="round"/>
</g>
</svg>
