<svg width="100" height="100" viewBox="0 0 100 100" fill="none" xmlns="http://www.w3.org/2000/svg">
<path opacity="0.15" d="M59.6772 66.129C59.6471 64.1926 60.1221 62.2816 61.0554 60.5847C61.9888 58.8877 63.3482 57.4632 64.9998 56.4516H64.5159C63.0544 56.4303 61.603 56.6971 60.2446 57.2367C58.8861 57.7764 57.6474 58.5784 56.5989 59.5968C55.5505 60.6153 54.7129 61.8304 54.1341 63.1726C53.5553 64.5148 53.2466 65.9578 53.2256 67.4194V67.7419C53.2256 82.2581 75.8062 98.3871 75.8062 98.3871L79.9998 95C74.3546 90.6452 59.6772 77.9032 59.6772 66.129Z" fill="#001966"/>
<path opacity="0.15" d="M53.2262 67.7419C53.2429 66.3595 53.5164 64.9922 54.0326 63.7097C52.7978 63.1405 51.7391 62.249 50.9681 61.129C49.2037 62.0938 47.7327 63.5173 46.7107 65.2492C45.6886 66.981 45.1534 68.9568 45.1617 70.9677C45.3076 74.3851 46.3056 77.7118 48.0649 80.6451H58.0649C55.1617 75.8064 53.2262 72.0968 53.2262 67.7419ZM30.6455 43.5484C31.9359 48.3871 37.2584 52.0968 40.323 54.8387V58.0645C40.323 60.6451 39.5165 63.871 26.452 66.4516C22.8104 67.0673 19.4306 68.7417 16.7344 71.2658C14.0382 73.7899 12.1449 77.052 11.2907 80.6451H1.61328C1.61328 80.6451 1.61328 69.3548 16.7746 66.4516C31.9359 63.5484 30.6455 60.6451 30.6455 58.0645V54.8387C27.4089 51.8094 25.1605 47.8748 24.1939 43.5484C20.1617 43.5484 17.7423 38.7097 17.7423 33.871C17.7423 32.5806 17.7423 27.4193 20.9681 27.4193C18.3875 17.0968 20.323 6.4516 27.4197 6.4516C33.2983 2.3874 40.5491 0.82123 47.581 2.09676C43.8339 2.84433 40.2712 4.32423 37.0972 6.4516C30.0004 6.4516 24.8391 17.0968 27.4197 27.4193C27.4197 27.4193 25.8068 40.3226 30.6455 43.5484Z" fill="#001966"/>
<path d="M58.0649 80.6452H1.61328C1.61328 80.6452 1.61328 69.3549 16.7746 66.4516C31.9359 63.5484 30.6455 60.6452 30.6455 58.0645V54.8387C27.4516 51.7759 25.2111 47.8551 24.1939 43.5484C20.1617 43.5484 17.7423 38.7097 17.7423 33.871C17.7423 32.5807 17.7423 27.4194 20.9681 27.4194C18.3875 17.0968 20.323 6.45162 27.4197 6.45162C44.1939 -4.8387 67.7423 4.19356 59.6778 27.4194C62.9036 27.4194 62.9036 32.5807 62.9036 33.871C62.9036 38.7097 60.4842 43.5484 56.452 43.5484C55.4551 47.863 53.2115 51.7893 50.0004 54.8387V58.0645C50.0574 59.2742 50.4705 60.4401 51.1879 61.4157C51.9053 62.3914 52.895 63.1334 54.0326 63.5484" stroke="#001966" stroke-linecap="round" stroke-linejoin="round"/>
<path d="M87.0966 56.4516C84.6263 56.5219 82.233 57.3265 80.2221 58.7629C78.2112 60.1993 76.6738 62.2022 75.8062 64.5161C74.9386 62.2022 73.4013 60.1993 71.3903 58.7629C69.3794 57.3265 66.9861 56.5219 64.5159 56.4516C63.0544 56.4303 61.603 56.6971 60.2446 57.2367C58.8861 57.7764 57.6474 58.5784 56.5989 59.5968C55.5505 60.6153 54.7129 61.8304 54.1341 63.1726C53.5553 64.5148 53.2466 65.9578 53.2256 67.4194V67.7419C53.2256 82.2581 75.8062 98.3871 75.8062 98.3871C75.8062 98.3871 98.3869 82.2581 98.3869 67.7419C98.4082 66.2804 98.1414 64.829 97.6018 63.4706C97.0621 62.1122 96.2601 60.8734 95.2417 59.825C94.2232 58.7765 93.0081 57.939 91.6659 57.3602C90.3237 56.7814 88.8807 56.4727 87.4191 56.4516H87.0966Z" stroke="#001966" stroke-linecap="round" stroke-linejoin="round"/>
</svg>
