<svg width="100" height="100" viewBox="0 0 100 100" fill="none" xmlns="http://www.w3.org/2000/svg">
<path opacity="0.15" d="M21.9359 69.04C34.0326 67.28 33.8713 63.6 33.8713 61.2V57.36C29.5165 53.52 27.4197 46.96 27.4197 39.76V28.56C27.4197 18 33.5488 13.04 40.323 11.92L37.0972 11.6C29.1939 11.6 20.9681 16.24 20.9681 28.56V39.76C20.9681 46.96 22.581 53.52 27.4197 57.36V61.2C27.4197 63.6 27.581 67.44 15.4843 69.04C12.0844 69.4588 8.90723 70.9406 6.41328 73.2708C3.91932 75.601 2.23811 78.6584 1.61328 82V88.4H8.06489V82C8.06489 82 8.06489 71.12 21.9359 69.04Z" fill="#001966"/>
<path d="M46.7744 59.6C50.0569 59.1191 53.2938 58.3699 56.4518 57.36C61.4518 55.6 61.2905 53.04 61.2905 51.6V48.4M60.0002 14.8C62.6397 12.6709 65.9537 11.5373 69.3551 11.6C75.8067 11.6 83.8712 15.44 83.8712 25.36V34.64C83.8545 37.2586 83.2697 39.8429 82.1564 42.2172C81.0432 44.5915 79.4276 46.7003 77.4196 48.4V51.44C77.4196 53.36 77.2583 56.72 86.9357 58.64C89.6614 59.1326 92.188 60.3887 94.2172 62.2599C96.2464 64.1311 97.6934 66.5393 98.3873 69.2V75.6H82.2583" stroke="#001966" stroke-linecap="round" stroke-linejoin="round"/>
<path d="M58.7101 69.04C46.6133 67.44 46.7746 63.12 46.7746 60.88V57.2C51.1294 53.36 53.2262 46.96 53.2262 39.76V28.56C53.2262 16.24 45.0004 11.6 37.0972 11.6C29.1939 11.6 20.9681 16.24 20.9681 28.56V39.76C20.9681 46.96 23.0649 53.52 27.4197 57.36V61.2C27.4197 63.6 27.581 67.44 15.4842 69.04C12.0844 69.4588 8.90723 70.9406 6.41328 73.2708C3.91932 75.601 2.23811 78.6584 1.61328 82V88.4H72.581V82C72.581 82 72.581 70.96 58.7101 69.04Z" stroke="#001966" stroke-linecap="round" stroke-linejoin="round"/>
</svg>
