<svg width="100" height="100" viewBox="0 0 100 100" fill="none" xmlns="http://www.w3.org/2000/svg">
<g id="News">
<path id="Vector" d="M27.4197 85.4839C27.4197 88.906 26.0603 92.188 23.6405 94.6078C21.2206 97.0277 17.9387 98.3871 14.5165 98.3871C11.0944 98.3871 7.81237 97.0277 5.39255 94.6078C2.97272 92.188 1.61328 88.906 1.61328 85.4839V14.5161H27.4197V85.4839Z" fill="#F4F6FF"/>
<path id="Vector_2" opacity="0.15" d="M14.5166 98.3871H85.4843C88.0502 98.3819 90.5562 97.6118 92.6822 96.1754C94.8082 94.7389 96.4577 92.7012 97.4198 90.3226H26.4521C25.4899 92.7012 23.8404 94.7389 21.7144 96.1754C19.5884 97.6118 17.0824 98.3819 14.5166 98.3871Z" fill="#001966"/>
<path id="Vector_3" d="M14.5166 98.3871H85.4843C88.9065 98.3871 92.1885 97.0277 94.6083 94.6078C97.0281 92.188 98.3876 88.906 98.3876 85.4839V1.61292H27.4198V14.5161" stroke="#001966" stroke-linecap="round" stroke-linejoin="round"/>
<path id="Vector_4" d="M85.4842 14.5161H40.323M85.4842 66.129H40.323M85.4842 79.0323H40.323M53.2262 27.4194H43.5488M53.2262 40.3226H40.323M53.2262 53.2258H40.323M27.4197 85.4839C27.4197 88.906 26.0603 92.188 23.6405 94.6078C21.2206 97.0277 17.9387 98.3871 14.5165 98.3871C11.0944 98.3871 7.81237 97.0277 5.39255 94.6078C2.97272 92.188 1.61328 88.906 1.61328 85.4839V14.5161H27.4197V85.4839ZM66.1294 27.4194H85.4842V53.2258H66.1294V27.4194Z" stroke="#001966" stroke-linecap="round" stroke-linejoin="round"/>
</g>
</svg>
