<svg width="100" height="100" viewBox="0 0 100 100" fill="none" xmlns="http://www.w3.org/2000/svg">
<g id="New chat">
<path id="Vector" opacity="0.18" d="M8.06489 75.8065V4.83872C8.06489 3.98318 8.40475 3.16269 9.00971 2.55773C9.61467 1.95278 10.4352 1.61292 11.2907 1.61292H4.83909C3.98355 1.61292 3.16305 1.95278 2.5581 2.55773C1.95314 3.16269 1.61328 3.98318 1.61328 4.83872V75.8065C1.61328 76.662 1.95314 77.4825 2.5581 78.0875C3.16305 78.6924 3.98355 79.0323 4.83909 79.0323H11.2907C10.4352 79.0323 9.61467 78.6924 9.00971 78.0875C8.40475 77.4825 8.06489 76.662 8.06489 75.8065Z" fill="#001966"/>
<path id="Vector_2" opacity="0.18" d="M47.5804 79.0323C46.1293 73.5596 46.5288 67.7606 48.7168 62.5387C50.9048 57.3167 54.7583 52.965 59.6772 50.1613C53.4338 50.9479 47.693 53.9885 43.5345 58.7114C39.376 63.4342 37.0865 69.5138 37.0965 75.8064C37.0774 76.8841 37.1313 77.9619 37.2578 79.0323H47.5804Z" fill="#001966"/>
<path id="Vector_3" d="M72.581 59.6774V85.4839M47.581 79.0323H4.83909C3.98355 79.0323 3.16305 78.6924 2.5581 78.0875C1.95314 77.4825 1.61328 76.662 1.61328 75.8065V4.83872C1.61328 3.98318 1.95314 3.16269 2.5581 2.55773C3.16305 1.95278 3.98355 1.61292 4.83909 1.61292H82.2584C83.114 1.61292 83.9345 1.95278 84.5394 2.55773C85.1444 3.16269 85.4842 3.98318 85.4842 4.83872V50.1613M72.581 40.3226H46.7746M72.581 14.5161H46.7746" stroke="#001966" stroke-linecap="round" stroke-linejoin="round"/>
<path id="Vector_4" d="M16.1295 16.129C17.0203 16.129 17.7424 15.4069 17.7424 14.5161C17.7424 13.6254 17.0203 12.9032 16.1295 12.9032C15.2387 12.9032 14.5166 13.6254 14.5166 14.5161C14.5166 15.4069 15.2387 16.129 16.1295 16.129Z" stroke="#001966" stroke-linecap="round" stroke-linejoin="round"/>
<path id="Vector_5" d="M16.1295 41.9355C17.0203 41.9355 17.7424 41.2134 17.7424 40.3226C17.7424 39.4318 17.0203 38.7097 16.1295 38.7097C15.2387 38.7097 14.5166 39.4318 14.5166 40.3226C14.5166 41.2134 15.2387 41.9355 16.1295 41.9355Z" stroke="#001966" stroke-linecap="round" stroke-linejoin="round"/>
<path id="Vector_6" d="M16.1295 67.7419C17.0203 67.7419 17.7424 67.0198 17.7424 66.129C17.7424 65.2382 17.0203 64.5161 16.1295 64.5161C15.2387 64.5161 14.5166 65.2382 14.5166 66.129C14.5166 67.0198 15.2387 67.7419 16.1295 67.7419Z" stroke="#001966" stroke-linecap="round" stroke-linejoin="round"/>
<path id="Vector_7" d="M85.4842 27.4193H1.61328M55.4842 53.2258H1.61328" stroke="#001966" stroke-linecap="round" stroke-linejoin="round"/>
<path id="Vector_8" d="M72.5809 98.3871C86.8334 98.3871 98.3873 86.8332 98.3873 72.5807C98.3873 58.3281 86.8334 46.7742 72.5809 46.7742C58.3284 46.7742 46.7744 58.3281 46.7744 72.5807C46.7744 86.8332 58.3284 98.3871 72.5809 98.3871Z" stroke="#001966" stroke-linecap="round" stroke-linejoin="round"/>
<path id="Vector_9" d="M59.6777 72.5806H85.4842" stroke="#001966" stroke-linecap="round" stroke-linejoin="round"/>
</g>
</svg>
