<svg width="0" height="0" class="hidden">
  <symbol fill="none" xmlns="http://www.w3.org/2000/svg" viewBox="0 0 100 100" id="business">
    <g id="Business">
      <path id="Vector" opacity="0.2" d="M91.9359 23.2143H8.06489C6.35382 23.2143 4.71283 23.9668 3.50292 25.3064C2.293 26.6459 1.61328 28.4627 1.61328 30.3572V35.7143C1.61328 33.8199 2.293 32.0031 3.50292 30.6635C4.71283 29.324 6.35382 28.5714 8.06489 28.5714H91.9359C93.6469 28.5714 95.2879 29.324 96.4978 30.6635C97.7078 32.0031 98.3875 33.8199 98.3875 35.7143V30.3572C98.3875 28.4627 97.7078 26.6459 96.4978 25.3064C95.2879 23.9668 93.6469 23.2143 91.9359 23.2143Z" fill="#FFFEFE"></path>
      <path id="Vector_2" opacity="0.15" d="M5 70H44V81H5V70Z" fill="#001966"></path>
      <path id="Vector_3" opacity="0.15" d="M56 70H95V81H56V70Z" fill="#001966"></path>
      <path id="Vector_4" opacity="0.15" d="M44 77H56V81H44V77Z" fill="#001966"></path>
      <path id="Vector_5" d="M33.8713 23.2143V16.0714C33.8713 12.2826 35.2308 8.64899 37.6506 5.96989C40.0704 3.2908 43.3524 1.78571 46.7746 1.78571H53.2262C56.6483 1.78571 59.9303 3.2908 62.3501 5.96989C64.77 8.64899 66.1294 12.2826 66.1294 16.0714V23.0714M56.452 69.6428H98.3875V30.3571C98.3875 28.4627 97.7078 26.6459 96.4978 25.3064C95.2879 23.9668 93.6469 23.2143 91.9359 23.2143H8.06489C6.35382 23.2143 4.71283 23.9668 3.50292 25.3064C2.293 26.6459 1.61328 28.4627 1.61328 30.3571V69.6428H43.5488" stroke="#001966" stroke-linecap="round" stroke-linejoin="round"></path>
      <path id="Vector_6" d="M95.1614 69.6429V98.2143H4.83887V69.6429" stroke="#001966" stroke-linecap="round" stroke-linejoin="round"></path>
      <path id="Vector_7" d="M43.5488 62.5H56.4521V76.7857H43.5488V62.5Z" stroke="#001966" stroke-linecap="round" stroke-linejoin="round"></path>
    </g>
  </symbol>
  <symbol fill="none" xmlns="http://www.w3.org/2000/svg" viewBox="0 0 100 100" id="dating">
    <path opacity="0.15" d="M59.6772 66.129C59.6471 64.1926 60.1221 62.2816 61.0554 60.5847C61.9888 58.8877 63.3482 57.4632 64.9998 56.4516H64.5159C63.0544 56.4303 61.603 56.6971 60.2446 57.2367C58.8861 57.7764 57.6474 58.5784 56.5989 59.5968C55.5505 60.6153 54.7129 61.8304 54.1341 63.1726C53.5553 64.5148 53.2466 65.9578 53.2256 67.4194V67.7419C53.2256 82.2581 75.8062 98.3871 75.8062 98.3871L79.9998 95C74.3546 90.6452 59.6772 77.9032 59.6772 66.129Z" fill="#001966"></path>
    <path opacity="0.15" d="M53.2262 67.7419C53.2429 66.3595 53.5164 64.9922 54.0326 63.7097C52.7978 63.1405 51.7391 62.249 50.9681 61.129C49.2037 62.0938 47.7327 63.5173 46.7107 65.2492C45.6886 66.981 45.1534 68.9568 45.1617 70.9677C45.3076 74.3851 46.3056 77.7118 48.0649 80.6451H58.0649C55.1617 75.8064 53.2262 72.0968 53.2262 67.7419ZM30.6455 43.5484C31.9359 48.3871 37.2584 52.0968 40.323 54.8387V58.0645C40.323 60.6451 39.5165 63.871 26.452 66.4516C22.8104 67.0673 19.4306 68.7417 16.7344 71.2658C14.0382 73.7899 12.1449 77.052 11.2907 80.6451H1.61328C1.61328 80.6451 1.61328 69.3548 16.7746 66.4516C31.9359 63.5484 30.6455 60.6451 30.6455 58.0645V54.8387C27.4089 51.8094 25.1605 47.8748 24.1939 43.5484C20.1617 43.5484 17.7423 38.7097 17.7423 33.871C17.7423 32.5806 17.7423 27.4193 20.9681 27.4193C18.3875 17.0968 20.323 6.4516 27.4197 6.4516C33.2983 2.3874 40.5491 0.82123 47.581 2.09676C43.8339 2.84433 40.2712 4.32423 37.0972 6.4516C30.0004 6.4516 24.8391 17.0968 27.4197 27.4193C27.4197 27.4193 25.8068 40.3226 30.6455 43.5484Z" fill="#001966"></path>
    <path d="M58.0649 80.6452H1.61328C1.61328 80.6452 1.61328 69.3549 16.7746 66.4516C31.9359 63.5484 30.6455 60.6452 30.6455 58.0645V54.8387C27.4516 51.7759 25.2111 47.8551 24.1939 43.5484C20.1617 43.5484 17.7423 38.7097 17.7423 33.871C17.7423 32.5807 17.7423 27.4194 20.9681 27.4194C18.3875 17.0968 20.323 6.45162 27.4197 6.45162C44.1939 -4.8387 67.7423 4.19356 59.6778 27.4194C62.9036 27.4194 62.9036 32.5807 62.9036 33.871C62.9036 38.7097 60.4842 43.5484 56.452 43.5484C55.4551 47.863 53.2115 51.7893 50.0004 54.8387V58.0645C50.0574 59.2742 50.4705 60.4401 51.1879 61.4157C51.9053 62.3914 52.895 63.1334 54.0326 63.5484" stroke="#001966" stroke-linecap="round" stroke-linejoin="round"></path>
    <path d="M87.0966 56.4516C84.6263 56.5219 82.233 57.3265 80.2221 58.7629C78.2112 60.1993 76.6738 62.2022 75.8062 64.5161C74.9386 62.2022 73.4013 60.1993 71.3903 58.7629C69.3794 57.3265 66.9861 56.5219 64.5159 56.4516C63.0544 56.4303 61.603 56.6971 60.2446 57.2367C58.8861 57.7764 57.6474 58.5784 56.5989 59.5968C55.5505 60.6153 54.7129 61.8304 54.1341 63.1726C53.5553 64.5148 53.2466 65.9578 53.2256 67.4194V67.7419C53.2256 82.2581 75.8062 98.3871 75.8062 98.3871C75.8062 98.3871 98.3869 82.2581 98.3869 67.7419C98.4082 66.2804 98.1414 64.829 97.6018 63.4706C97.0621 62.1122 96.2601 60.8734 95.2417 59.825C94.2232 58.7765 93.0081 57.939 91.6659 57.3602C90.3237 56.7814 88.8807 56.4727 87.4191 56.4516H87.0966Z" stroke="#001966" stroke-linecap="round" stroke-linejoin="round"></path>
  </symbol>
  <symbol fill="none" xmlns="http://www.w3.org/2000/svg" viewBox="0 0 100 100" id="main">
    <path opacity="0.15" d="M21.9359 69.04C34.0326 67.28 33.8713 63.6 33.8713 61.2V57.36C29.5165 53.52 27.4197 46.96 27.4197 39.76V28.56C27.4197 18 33.5488 13.04 40.323 11.92L37.0972 11.6C29.1939 11.6 20.9681 16.24 20.9681 28.56V39.76C20.9681 46.96 22.581 53.52 27.4197 57.36V61.2C27.4197 63.6 27.581 67.44 15.4843 69.04C12.0844 69.4588 8.90723 70.9406 6.41328 73.2708C3.91932 75.601 2.23811 78.6584 1.61328 82V88.4H8.06489V82C8.06489 82 8.06489 71.12 21.9359 69.04Z" fill="#001966"></path>
    <path d="M46.7744 59.6C50.0569 59.1191 53.2938 58.3699 56.4518 57.36C61.4518 55.6 61.2905 53.04 61.2905 51.6V48.4M60.0002 14.8C62.6397 12.6709 65.9537 11.5373 69.3551 11.6C75.8067 11.6 83.8712 15.44 83.8712 25.36V34.64C83.8545 37.2586 83.2697 39.8429 82.1564 42.2172C81.0432 44.5915 79.4276 46.7003 77.4196 48.4V51.44C77.4196 53.36 77.2583 56.72 86.9357 58.64C89.6614 59.1326 92.188 60.3887 94.2172 62.2599C96.2464 64.1311 97.6934 66.5393 98.3873 69.2V75.6H82.2583" stroke="#001966" stroke-linecap="round" stroke-linejoin="round"></path>
    <path d="M58.7101 69.04C46.6133 67.44 46.7746 63.12 46.7746 60.88V57.2C51.1294 53.36 53.2262 46.96 53.2262 39.76V28.56C53.2262 16.24 45.0004 11.6 37.0972 11.6C29.1939 11.6 20.9681 16.24 20.9681 28.56V39.76C20.9681 46.96 23.0649 53.52 27.4197 57.36V61.2C27.4197 63.6 27.581 67.44 15.4842 69.04C12.0844 69.4588 8.90723 70.9406 6.41328 73.2708C3.91932 75.601 2.23811 78.6584 1.61328 82V88.4H72.581V82C72.581 82 72.581 70.96 58.7101 69.04Z" stroke="#001966" stroke-linecap="round" stroke-linejoin="round"></path>
  </symbol>
  <symbol fill="none" xmlns="http://www.w3.org/2000/svg" viewBox="0 0 100 100" id="news">
    <g id="News">
      <path id="Vector" d="M27.4197 85.4839C27.4197 88.906 26.0603 92.188 23.6405 94.6078C21.2206 97.0277 17.9387 98.3871 14.5165 98.3871C11.0944 98.3871 7.81237 97.0277 5.39255 94.6078C2.97272 92.188 1.61328 88.906 1.61328 85.4839V14.5161H27.4197V85.4839Z" fill="#F4F6FF"></path>
      <path id="Vector_2" opacity="0.15" d="M14.5166 98.3871H85.4843C88.0502 98.3819 90.5562 97.6118 92.6822 96.1754C94.8082 94.7389 96.4577 92.7012 97.4198 90.3226H26.4521C25.4899 92.7012 23.8404 94.7389 21.7144 96.1754C19.5884 97.6118 17.0824 98.3819 14.5166 98.3871Z" fill="#001966"></path>
      <path id="Vector_3" d="M14.5166 98.3871H85.4843C88.9065 98.3871 92.1885 97.0277 94.6083 94.6078C97.0281 92.188 98.3876 88.906 98.3876 85.4839V1.61292H27.4198V14.5161" stroke="#001966" stroke-linecap="round" stroke-linejoin="round"></path>
      <path id="Vector_4" d="M85.4842 14.5161H40.323M85.4842 66.129H40.323M85.4842 79.0323H40.323M53.2262 27.4194H43.5488M53.2262 40.3226H40.323M53.2262 53.2258H40.323M27.4197 85.4839C27.4197 88.906 26.0603 92.188 23.6405 94.6078C21.2206 97.0277 17.9387 98.3871 14.5165 98.3871C11.0944 98.3871 7.81237 97.0277 5.39255 94.6078C2.97272 92.188 1.61328 88.906 1.61328 85.4839V14.5161H27.4197V85.4839ZM66.1294 27.4194H85.4842V53.2258H66.1294V27.4194Z" stroke="#001966" stroke-linecap="round" stroke-linejoin="round"></path>
    </g>
  </symbol>
  <symbol fill="none" xmlns="http://www.w3.org/2000/svg" viewBox="0 0 100 100" id="private">
    <g id="New chat">
      <path id="Vector" opacity="0.18" d="M8.06489 75.8065V4.83872C8.06489 3.98318 8.40475 3.16269 9.00971 2.55773C9.61467 1.95278 10.4352 1.61292 11.2907 1.61292H4.83909C3.98355 1.61292 3.16305 1.95278 2.5581 2.55773C1.95314 3.16269 1.61328 3.98318 1.61328 4.83872V75.8065C1.61328 76.662 1.95314 77.4825 2.5581 78.0875C3.16305 78.6924 3.98355 79.0323 4.83909 79.0323H11.2907C10.4352 79.0323 9.61467 78.6924 9.00971 78.0875C8.40475 77.4825 8.06489 76.662 8.06489 75.8065Z" fill="#001966"></path>
      <path id="Vector_2" opacity="0.18" d="M47.5804 79.0323C46.1293 73.5596 46.5288 67.7606 48.7168 62.5387C50.9048 57.3167 54.7583 52.965 59.6772 50.1613C53.4338 50.9479 47.693 53.9885 43.5345 58.7114C39.376 63.4342 37.0865 69.5138 37.0965 75.8064C37.0774 76.8841 37.1313 77.9619 37.2578 79.0323H47.5804Z" fill="#001966"></path>
      <path id="Vector_3" d="M72.581 59.6774V85.4839M47.581 79.0323H4.83909C3.98355 79.0323 3.16305 78.6924 2.5581 78.0875C1.95314 77.4825 1.61328 76.662 1.61328 75.8065V4.83872C1.61328 3.98318 1.95314 3.16269 2.5581 2.55773C3.16305 1.95278 3.98355 1.61292 4.83909 1.61292H82.2584C83.114 1.61292 83.9345 1.95278 84.5394 2.55773C85.1444 3.16269 85.4842 3.98318 85.4842 4.83872V50.1613M72.581 40.3226H46.7746M72.581 14.5161H46.7746" stroke="#001966" stroke-linecap="round" stroke-linejoin="round"></path>
      <path id="Vector_4" d="M16.1295 16.129C17.0203 16.129 17.7424 15.4069 17.7424 14.5161C17.7424 13.6254 17.0203 12.9032 16.1295 12.9032C15.2387 12.9032 14.5166 13.6254 14.5166 14.5161C14.5166 15.4069 15.2387 16.129 16.1295 16.129Z" stroke="#001966" stroke-linecap="round" stroke-linejoin="round"></path>
      <path id="Vector_5" d="M16.1295 41.9355C17.0203 41.9355 17.7424 41.2134 17.7424 40.3226C17.7424 39.4318 17.0203 38.7097 16.1295 38.7097C15.2387 38.7097 14.5166 39.4318 14.5166 40.3226C14.5166 41.2134 15.2387 41.9355 16.1295 41.9355Z" stroke="#001966" stroke-linecap="round" stroke-linejoin="round"></path>
      <path id="Vector_6" d="M16.1295 67.7419C17.0203 67.7419 17.7424 67.0198 17.7424 66.129C17.7424 65.2382 17.0203 64.5161 16.1295 64.5161C15.2387 64.5161 14.5166 65.2382 14.5166 66.129C14.5166 67.0198 15.2387 67.7419 16.1295 67.7419Z" stroke="#001966" stroke-linecap="round" stroke-linejoin="round"></path>
      <path id="Vector_7" d="M85.4842 27.4193H1.61328M55.4842 53.2258H1.61328" stroke="#001966" stroke-linecap="round" stroke-linejoin="round"></path>
      <path id="Vector_8" d="M72.5809 98.3871C86.8334 98.3871 98.3873 86.8332 98.3873 72.5807C98.3873 58.3281 86.8334 46.7742 72.5809 46.7742C58.3284 46.7742 46.7744 58.3281 46.7744 72.5807C46.7744 86.8332 58.3284 98.3871 72.5809 98.3871Z" stroke="#001966" stroke-linecap="round" stroke-linejoin="round"></path>
      <path id="Vector_9" d="M59.6777 72.5806H85.4842" stroke="#001966" stroke-linecap="round" stroke-linejoin="round"></path>
    </g>
  </symbol>
  <symbol fill="none" xmlns="http://www.w3.org/2000/svg" viewBox="0 0 100 100" id="work">
    <g id="Work">
      <path id="Vector" opacity="0.15" d="M8.06445 1.61292H20.9677V66.129H8.06445V1.61292Z" fill="#001966"></path>
      <path id="Vector_2" d="M50.0004 98.3871V66.129M50.0004 66.129L24.1939 95.1613M50.0004 66.129L75.8068 95.1613M1.61328 66.129H98.3875M8.06489 66.129V1.61292H91.9359V66.129M8.06489 14.5161H91.9359" stroke="#001966" stroke-linecap="round" stroke-linejoin="round"></path>
    </g>
  </symbol>
</svg>