<svg width="0" height="0" style="dislpay: none">
  <symbol fill="none" xmlns="http://www.w3.org/2000/svg" viewBox="0 0 40 40" id="emoji-1">
    <g id="Emoji 4" clip-path="url(#clip0_802_2675)">
      <path id="Vector" d="M20 35C18.0302 35 16.0796 34.612 14.2597 33.8582C12.4399 33.1044 10.7863 31.9995 9.3934 30.6066C8.00052 29.2137 6.89563 27.5601 6.14181 25.7403C5.38799 23.9204 5 21.9698 5 20C5 18.0302 5.38799 16.0796 6.14181 14.2597C6.89563 12.4399 8.00052 10.7863 9.3934 9.3934C10.7863 8.00052 12.4399 6.89563 14.2597 6.14181C16.0796 5.38799 18.0302 5 20 5C23.9782 5 27.7936 6.58035 30.6066 9.3934C33.4196 12.2064 35 16.0218 35 20C35 23.9782 33.4196 27.7936 30.6066 30.6066C27.7936 33.4196 23.9782 35 20 35Z" fill="var(--fill-c)" stroke="var(--color-7)" stroke-width="var(--stroke-width)" stroke-linecap="round" stroke-linejoin="round"></path>
      <path id="Vector_2" d="M25.4004 24.8C24.6835 25.4333 23.8277 25.9363 22.8833 26.2797C21.9389 26.6232 20.9248 26.8 19.9004 26.8C18.876 26.8 17.8619 26.6232 16.9175 26.2797C15.9731 25.9363 15.1173 25.4333 14.4004 24.8" stroke="var(--color-7)" stroke-width="var(--stroke-width)" stroke-linecap="round" stroke-linejoin="round"></path>
      <path id="Vector_3" d="M16.9349 17.031L13.6033 20.0001L10.2717 17.031C10.052 16.8386 9.87886 16.6073 9.76332 16.3518C9.64778 16.0962 9.59231 15.8219 9.60038 15.546C9.60845 15.2702 9.67991 14.9989 9.81024 14.7492C9.94057 14.4994 10.127 14.2767 10.3577 14.0949C10.5884 13.9132 10.8584 13.7764 11.1507 13.6932C11.4431 13.61 11.7514 13.5821 12.0563 13.6114C12.3612 13.6406 12.656 13.7264 12.9223 13.8632C13.1885 14.0001 13.4204 14.185 13.6033 14.4065C13.787 14.1867 14.0192 14.0033 14.2852 13.8679C14.5513 13.7325 14.8456 13.648 15.1496 13.6197C15.4536 13.5913 15.7609 13.6197 16.0522 13.7031C16.3434 13.7866 16.6124 13.9232 16.8423 14.1044C17.0722 14.2857 17.2581 14.5077 17.3882 14.7566C17.5184 15.0055 17.59 15.2758 17.5987 15.5508C17.6074 15.8257 17.5529 16.0993 17.4387 16.3544C17.3245 16.6095 17.153 16.8407 16.9349 17.0334" stroke="var(--color-7)" stroke-width="var(--stroke-width)" stroke-linecap="round" stroke-linejoin="round"></path>
      <path id="Vector_4" d="M29.7357 17.031L26.4041 20.0001L23.0725 17.031C22.8527 16.8386 22.6796 16.6073 22.5641 16.3518C22.4486 16.0962 22.3931 15.8219 22.4012 15.546C22.4092 15.2702 22.4807 14.9989 22.611 14.7492C22.7413 14.4994 22.9277 14.2767 23.1584 14.0949C23.3891 13.9132 23.6592 13.7764 23.9515 13.6932C24.2438 13.61 24.5522 13.5821 24.8571 13.6114C25.1619 13.6406 25.4568 13.7264 25.7231 13.8632C25.9893 14.0001 26.2212 14.185 26.4041 14.4065C26.5878 14.1867 26.8199 14.0033 27.086 13.8679C27.3521 13.7325 27.6463 13.648 27.9504 13.6197C28.2544 13.5913 28.5617 13.6197 28.8529 13.7031C29.1442 13.7866 29.4132 13.9232 29.6431 14.1044C29.873 14.2857 30.0588 14.5077 30.189 14.7566C30.3191 15.0055 30.3908 15.2758 30.3995 15.5508C30.4082 15.8257 30.3537 16.0993 30.2395 16.3544C30.1253 16.6095 29.9538 16.8407 29.7357 17.0334" stroke="var(--color-7)" stroke-width="var(--stroke-width)" stroke-linecap="round" stroke-linejoin="round"></path>
    </g>
    <defs>
      <clipPath id="clip0_802_2675">
        <rect width="40" height="40" fill="white"></rect>
      </clipPath>
    </defs>
  </symbol>
  <symbol fill="none" xmlns="http://www.w3.org/2000/svg" viewBox="0 0 40 40" id="emoji-2">
    <g id="Emoji 2" clip-path="url(#clip0_802_2687)">
      <path id="Vector" d="M5 20C5 21.9698 5.38799 23.9204 6.14181 25.7403C6.89563 27.5601 8.00052 29.2137 9.3934 30.6066C10.7863 31.9995 12.4399 33.1044 14.2597 33.8582C16.0796 34.612 18.0302 35 20 35C21.9698 35 23.9204 34.612 25.7403 33.8582C27.5601 33.1044 29.2137 31.9995 30.6066 30.6066C31.9995 29.2137 33.1044 27.5601 33.8582 25.7403C34.612 23.9204 35 21.9698 35 20C35 18.0302 34.612 16.0796 33.8582 14.2597C33.1044 12.4399 31.9995 10.7863 30.6066 9.3934C29.2137 8.00052 27.5601 6.89563 25.7403 6.14181C23.9204 5.38799 21.9698 5 20 5C18.0302 5 16.0796 5.38799 14.2597 6.14181C12.4399 6.89563 10.7863 8.00052 9.3934 9.3934C8.00052 10.7863 6.89563 12.4399 6.14181 14.2597C5.38799 16.0796 5 18.0302 5 20Z" fill="var(--fill-c)" stroke="var(--color-7)" stroke-width="var(--stroke-width)" stroke-linecap="round" stroke-linejoin="round"></path>
      <path id="Vector_2" d="M15 16.6667H15.0167" stroke="var(--color-7)" stroke-width="var(--stroke-width)" stroke-linecap="round" stroke-linejoin="round"></path>
      <path id="Vector_3" d="M25 16.6667H25.0167" stroke="var(--color-7)" stroke-width="var(--stroke-width)" stroke-linecap="round" stroke-linejoin="round"></path>
      <path id="Vector_4" d="M15 25H25" stroke="var(--color-7)" stroke-width="var(--stroke-width)" stroke-linecap="round" stroke-linejoin="round"></path>
    </g>
    <defs>
      <clipPath id="clip0_802_2687">
        <rect width="40" height="40" fill="white"></rect>
      </clipPath>
    </defs>
  </symbol>
  <symbol fill="none" xmlns="http://www.w3.org/2000/svg" viewBox="0 0 40 40" id="emoji-3">
    <g id="Emoji 3" clip-path="url(#clip0_802_2681)">
      <path id="Vector" d="M20 35C18.0302 35 16.0796 34.612 14.2597 33.8582C12.4399 33.1044 10.7863 31.9995 9.3934 30.6066C8.00052 29.2137 6.89563 27.5601 6.14181 25.7403C5.38799 23.9204 5 21.9698 5 20C5 18.0302 5.38799 16.0796 6.14181 14.2597C6.89563 12.4399 8.00052 10.7863 9.3934 9.3934C10.7863 8.00052 12.4399 6.89563 14.2597 6.14181C16.0796 5.38799 18.0302 5 20 5C23.9782 5 27.7936 6.58035 30.6066 9.3934C33.4196 12.2064 35 16.0218 35 20C35 23.9782 33.4196 27.7936 30.6066 30.6066C27.7936 33.4196 23.9782 35 20 35Z" fill="var(--fill-c)" stroke="var(--color-7)" stroke-width="var(--stroke-width)" stroke-linecap="round" stroke-linejoin="round"></path>
      <path id="Vector_2" d="M16.667 16.6667C15.8337 15.0001 12.5003 15.0001 11.667 16.6667" stroke="var(--color-7)" stroke-width="var(--stroke-width)" stroke-linecap="round" stroke-linejoin="round"></path>
      <path id="Vector_3" d="M28.333 16.6667C27.4997 15.0001 24.1663 15.0001 23.333 16.6667" stroke="var(--color-7)" stroke-width="var(--stroke-width)" stroke-linecap="round" stroke-linejoin="round"></path>
      <path id="Vector_4" d="M24.1663 25C23.6232 25.5543 22.9749 25.9947 22.2595 26.2954C21.544 26.596 20.7757 26.7509 19.9997 26.7509C19.2236 26.7509 18.4554 26.596 17.7399 26.2954C17.0244 25.9947 16.3761 25.5543 15.833 25" stroke="var(--color-7)" stroke-width="var(--stroke-width)" stroke-linecap="round" stroke-linejoin="round"></path>
    </g>
    <defs>
      <clipPath id="clip0_802_2681">
        <rect width="40" height="40" fill="white"></rect>
      </clipPath>
    </defs>
  </symbol>
  <symbol fill="none" xmlns="http://www.w3.org/2000/svg" viewBox="0 0 40 40" id="emoji-4">
    <g id="Emoji 5" clip-path="url(#clip0_802_2693)">
      <path id="Vector" d="M5 20C5 21.9698 5.38799 23.9204 6.14181 25.7403C6.89563 27.5601 8.00052 29.2137 9.3934 30.6066C10.7863 31.9995 12.4399 33.1044 14.2597 33.8582C16.0796 34.612 18.0302 35 20 35C21.9698 35 23.9204 34.612 25.7403 33.8582C27.5601 33.1044 29.2137 31.9995 30.6066 30.6066C31.9995 29.2137 33.1044 27.5601 33.8582 25.7403C34.612 23.9204 35 21.9698 35 20C35 18.0302 34.612 16.0796 33.8582 14.2597C33.1044 12.4399 31.9995 10.7863 30.6066 9.3934C29.2137 8.00052 27.5601 6.89563 25.7403 6.14181C23.9204 5.38799 21.9698 5 20 5C18.0302 5 16.0796 5.38799 14.2597 6.14181C12.4399 6.89563 10.7863 8.00052 9.3934 9.3934C8.00052 10.7863 6.89563 12.4399 6.14181 14.2597C5.38799 16.0796 5 18.0302 5 20Z" fill="var(--fill-c)" stroke="var(--color-7)" stroke-width="var(--stroke-width)" stroke-linecap="round" stroke-linejoin="round"></path>
      <path id="Vector_2" d="M15 16.6667H15.0167" stroke="var(--color-7)" stroke-width="var(--stroke-width)" stroke-linecap="round" stroke-linejoin="round"></path>
      <path id="Vector_3" d="M25 16.6667H25.0167" stroke="var(--color-7)" stroke-width="var(--stroke-width)" stroke-linecap="round" stroke-linejoin="round"></path>
      <path id="Vector_4" d="M15.6806 26.6554C16.1615 26.0933 16.787 25.5424 17.5205 25.0348C18.2539 24.5273 19.0805 24.0733 19.9519 23.6995C20.8233 23.3257 21.722 23.0397 22.5952 22.8581C23.4685 22.6765 24.2988 22.603 25.0376 22.6419" stroke="var(--color-7)" stroke-width="var(--stroke-width)" stroke-linecap="round" stroke-linejoin="round"></path>
    </g>
    <defs>
      <clipPath id="clip0_802_2693">
        <rect width="40" height="40" fill="white"></rect>
      </clipPath>
    </defs>
  </symbol>
  <symbol fill="none" xmlns="http://www.w3.org/2000/svg" viewBox="0 0 40 40" id="emoji-5">
    <g id="Emoji" clip-path="url(#clip0_802_2699)">
      <path id="Vector" d="M5 20C5 21.9698 5.38799 23.9204 6.14181 25.7403C6.89563 27.5601 8.00052 29.2137 9.3934 30.6066C10.7863 31.9995 12.4399 33.1044 14.2597 33.8582C16.0796 34.612 18.0302 35 20 35C21.9698 35 23.9204 34.612 25.7403 33.8582C27.5601 33.1044 29.2137 31.9995 30.6066 30.6066C31.9995 29.2137 33.1044 27.5601 33.8582 25.7403C34.612 23.9204 35 21.9698 35 20C35 18.0302 34.612 16.0796 33.8582 14.2597C33.1044 12.4399 31.9995 10.7863 30.6066 9.3934C29.2137 8.00052 27.5601 6.89563 25.7403 6.14181C23.9204 5.38799 21.9698 5 20 5C18.0302 5 16.0796 5.38799 14.2597 6.14181C12.4399 6.89563 10.7863 8.00052 9.3934 9.3934C8.00052 10.7863 6.89563 12.4399 6.14181 14.2597C5.38799 16.0796 5 18.0302 5 20Z" fill="var(--fill-c)" stroke="var(--color-7)" stroke-width="var(--stroke-width)" stroke-linecap="round" stroke-linejoin="round"></path>
      <path id="Vector_2" d="M15 16.6667H15.0167" stroke="var(--color-7)" stroke-width="var(--stroke-width)" stroke-linecap="round" stroke-linejoin="round"></path>
      <path id="Vector_3" d="M25 16.6667H25.0167" stroke="var(--color-7)" stroke-width="var(--stroke-width)" stroke-linecap="round" stroke-linejoin="round"></path>
      <path id="Vector_4" d="M15.834 25.4166C16.3771 24.8623 17.0254 24.4219 17.7409 24.1213C18.4563 23.8206 19.2246 23.6658 20.0007 23.6658C20.7767 23.6658 21.545 23.8206 22.2604 24.1213C22.9759 24.4219 23.6242 24.8623 24.1673 25.4166" stroke="var(--color-7)" stroke-width="var(--stroke-width)" stroke-linecap="round" stroke-linejoin="round"></path>
    </g>
    <defs>
      <clipPath id="clip0_802_2699">
        <rect width="40" height="40" fill="white"></rect>
      </clipPath>
    </defs>
  </symbol>
  <symbol fill="none" xmlns="http://www.w3.org/2000/svg" viewBox="0 0 40 40" id="what-is-item-icon">
    <g clip-path="url(#clip0_39_275)">
      <path d="M11.667 20L20.0003 28.3334L36.667 11.6667" stroke="var(--color-1)" stroke-linecap="round" stroke-linejoin="round"></path>
      <path d="M3 20.3333L11.3333 28.6667M19.6667 20.3333L28 12" stroke="var(--color-1)" stroke-linecap="round" stroke-linejoin="round"></path>
    </g>
    <defs>
      <clipPath id="clip0_39_275">
        <rect width="40" height="40" fill="white"></rect>
      </clipPath>
    </defs>
  </symbol>
  <symbol fill="none" xmlns="http://www.w3.org/2000/svg" viewBox="0 0 40 40" id="communication-item-icon">
    <g clip-path="url(#clip0_39_312)">
      <path d="M27.4997 16.6667C32.563 16.6667 36.6663 20.025 36.6663 24.1667C36.6663 26.495 35.3697 28.575 33.333 29.95V33.3333L30.0597 31.37C29.2208 31.5681 28.3616 31.6677 27.4997 31.6667C22.4363 31.6667 18.333 28.3083 18.333 24.1667C18.333 20.025 22.4363 16.6667 27.4997 16.6667Z" stroke="var(--color-1)" stroke-linecap="round" stroke-linejoin="round"></path>
      <path d="M18.6613 26.1633C17.5113 26.49 16.278 26.6667 14.9997 26.6667C13.5187 26.6699 12.0475 26.4265 10.6463 25.9467L6.66634 28.3333V23.665C4.60467 21.8617 3.33301 19.3917 3.33301 16.6667C3.33301 11.1433 8.55634 6.66667 14.9997 6.66667C21.303 6.66667 26.438 10.95 26.6663 16.3083V16.6967" stroke="var(--color-1)" stroke-linecap="round" stroke-linejoin="round"></path>
    </g>
    <defs>
      <clipPath id="clip0_39_312">
        <rect width="40" height="40" fill="white"></rect>
      </clipPath>
    </defs>
  </symbol>
  <symbol fill="none" xmlns="http://www.w3.org/2000/svg" viewBox="0 0 42 42" id="add-user">
    <g clip-path="url(#clip0_27_1224)">
      <path d="M9.33398 12.6667C9.33398 14.4348 10.0364 16.1305 11.2866 17.3807C12.5368 18.631 14.2325 19.3333 16.0007 19.3333C17.7688 19.3333 19.4645 18.631 20.7147 17.3807C21.9649 16.1305 22.6673 14.4348 22.6673 12.6667C22.6673 10.8986 21.9649 9.20286 20.7147 7.95262C19.4645 6.70238 17.7688 6 16.0007 6C14.2325 6 12.5368 6.70238 11.2866 7.95262C10.0364 9.20286 9.33398 10.8986 9.33398 12.6667Z" stroke="#001966" stroke-linecap="round" stroke-linejoin="round"></path>
      <path d="M6 36V32.6667C6 30.8986 6.70238 29.2029 7.95262 27.9526C9.20286 26.7024 10.8986 26 12.6667 26H19.3333C20.9333 26 22.4 26.5633 23.55 27.5017" stroke="#001966" stroke-linecap="round" stroke-linejoin="round"></path>
      <path d="M27.666 6.21667C29.1 6.58384 30.3711 7.41784 31.2787 8.58719C32.1864 9.75654 32.6791 11.1947 32.6791 12.675C32.6791 14.1553 32.1864 15.5935 31.2787 16.7628C30.3711 17.9322 29.1 18.7662 27.666 19.1333" stroke="#001966" stroke-linecap="round" stroke-linejoin="round"></path>
      <path d="M27.666 32.6666H37.666" stroke="#001966" stroke-linecap="round" stroke-linejoin="round"></path>
      <path d="M32.666 27.6666V37.6666" stroke="#001966" stroke-linecap="round" stroke-linejoin="round"></path>
    </g>
    <rect x="1" y="1" width="40" height="40" rx="5" stroke="#A3AFD1"></rect>
    <defs>
      <clipPath id="clip0_27_1224">
        <rect x="1" y="1" width="40" height="40" rx="5" fill="white"></rect>
      </clipPath>
    </defs>
  </symbol>
  <symbol fill="none" xmlns="http://www.w3.org/2000/svg" viewBox="0 0 40 40" id="arrow-right">
    <g id="arrow-right-g" clip-path="url(#clip0_766_3646)">
      <path id="Vector" d="M8.33398 20H31.6673" stroke="#001966" stroke-linecap="round" stroke-linejoin="round"></path>
      <path id="Vector_2" d="M21.666 30L31.666 20" stroke="#001966" stroke-linecap="round" stroke-linejoin="round"></path>
      <path id="Vector_3" d="M21.666 10L31.666 20" stroke="#001966" stroke-linecap="round" stroke-linejoin="round"></path>
    </g>
    <defs>
      <clipPath id="clip0_766_3646">
        <rect width="40" height="40" fill="white"></rect>
      </clipPath>
    </defs>
  </symbol>
  <symbol fill="none" xmlns="http://www.w3.org/2000/svg" viewBox="0 0 40 40" id="chats">
    <g id="Chat" clip-path="url(#clip0_12_20)">
      <path id="Vector" d="M27.5007 16.6666C32.564 16.6666 36.6673 20.025 36.6673 24.1666C36.6673 26.495 35.3707 28.575 33.334 29.95V33.3333L30.0607 31.37C29.2218 31.5681 28.3626 31.6676 27.5007 31.6666C22.4373 31.6666 18.334 28.3083 18.334 24.1666C18.334 20.025 22.4373 16.6666 27.5007 16.6666Z" stroke="#001966" stroke-linecap="round" stroke-linejoin="round"></path>
      <path id="Vector_2" d="M18.6623 26.1633C17.5123 26.49 16.279 26.6666 15.0007 26.6666C13.5196 26.6698 12.0484 26.4265 10.6473 25.9466L6.66732 28.3333V23.665C4.60565 21.8616 3.33398 19.3916 3.33398 16.6666C3.33398 11.1433 8.55732 6.66663 15.0007 6.66663C21.304 6.66663 26.439 10.95 26.6673 16.3083V16.6966" stroke="#001966" stroke-linecap="round" stroke-linejoin="round"></path>
    </g>
    <defs>
      <clipPath id="clip0_12_20">
        <rect width="40" height="40" fill="white"></rect>
      </clipPath>
    </defs>
  </symbol>
  <symbol fill="var(--exit-fill-c)" xmlns="http://www.w3.org/2000/svg" viewBox="0 0 40 40" id="exit">
    <g id="Exit">
      <g clip-path="url(#clip0_27_1249)">
        <path id="Vector" d="M23.3333 13.3333V9.99996C23.3333 9.1159 22.9821 8.26806 22.357 7.64294C21.7319 7.01782 20.8841 6.66663 20 6.66663H8.33333C7.44928 6.66663 6.60143 7.01782 5.97631 7.64294C5.35119 8.26806 5 9.1159 5 9.99996V30C5 30.884 5.35119 31.7319 5.97631 32.357C6.60143 32.9821 7.44928 33.3333 8.33333 33.3333H20C20.8841 33.3333 21.7319 32.9821 22.357 32.357C22.9821 31.7319 23.3333 30.884 23.3333 30V26.6666" stroke="var(--stroke-c)" stroke-linecap="round" stroke-linejoin="round"></path>
        <path id="Vector_2" d="M15 20H35L30 15" stroke="var(--stroke-c)" stroke-linecap="round" stroke-linejoin="round"></path>
        <path id="Vector_3" d="M30 25L35 20" stroke="var(--stroke-c)" stroke-linecap="round" stroke-linejoin="round"></path>
      </g>
      <!-- <rect x="0.5" y="0.5" width="39" height="39" rx="4.5" stroke="#A3AFD1"></rect> -->
    </g>
    <defs>
      <clipPath id="clip0_27_1249">
        <rect width="40" height="40" rx="5" fill="white"></rect>
      </clipPath>
    </defs>
  </symbol>
   <symbol fill="none" xmlns="http://www.w3.org/2000/svg" viewBox="0 0 30 30" id="mail">
    <g id="Mail" clip-path="url(#clip0_1192_3610)">
      <path id="Vector" d="M10 11.25H20" stroke="#001966" stroke-linecap="round" stroke-linejoin="round"></path>
      <path id="Vector_2" d="M10 16.25H17.5" stroke="#001966" stroke-linecap="round" stroke-linejoin="round"></path>
      <path id="Vector_3" d="M22.5 5C23.4946 5 24.4484 5.39509 25.1517 6.09835C25.8549 6.80161 26.25 7.75544 26.25 8.75V18.75C26.25 19.7446 25.8549 20.6984 25.1517 21.4017C24.4484 22.1049 23.4946 22.5 22.5 22.5H16.25L10 26.25V22.5H7.5C6.50544 22.5 5.55161 22.1049 4.84835 21.4017C4.14509 20.6984 3.75 19.7446 3.75 18.75V8.75C3.75 7.75544 4.14509 6.80161 4.84835 6.09835C5.55161 5.39509 6.50544 5 7.5 5H22.5Z" stroke="#001966" stroke-linecap="round" stroke-linejoin="round"></path>
    </g>
    <defs>
      <clipPath id="clip0_1192_3610">
        <rect width="30" height="30" fill="white"></rect>
      </clipPath>
    </defs>
  </symbol>
  <symbol fill="none" xmlns="http://www.w3.org/2000/svg" viewBox="0 0 40 40" id="tick">
    <g id="tick-g" clip-path="url(#clip0_395_2454)">
      <path id="Vector" d="M13.334 20L20.0007 26.6667" stroke="#001966" stroke-linecap="round" stroke-linejoin="round"></path>
      <path id="Vector_2" d="M26.6667 20L20 26.6667" stroke="#001966" stroke-linecap="round" stroke-linejoin="round"></path>
    </g>
    <defs>
      <clipPath id="clip0_395_2454">
        <rect width="40" height="40" fill="white"></rect>
      </clipPath>
    </defs>
  </symbol>
  <symbol fill="none" xmlns="http://www.w3.org/2000/svg" viewBox="0 0 25 26" id="rocket">
    <g id="rocket" clip-path="url(#clip0_521_4476)">
      <path id="Vector" d="M4.16602 14.0416C6.0234 14.2624 7.75252 15.1016 9.07514 16.4242C10.3978 17.7468 11.2369 19.4759 11.4577 21.3333C12.3784 20.8025 13.1486 20.0456 13.6954 19.1343C14.2422 18.2229 14.5476 17.1872 14.5827 16.125C16.3318 15.5097 17.8591 14.3895 18.9716 12.9062C20.0841 11.4229 20.7317 9.64302 20.8327 7.79163C20.8327 6.96282 20.5034 6.16797 19.9174 5.58192C19.3313 4.99587 18.5365 4.66663 17.7077 4.66663C15.8563 4.76757 14.0764 5.41524 12.5931 6.52772C11.1098 7.64021 9.98965 9.16755 9.37435 10.9166C8.31212 10.9517 7.27639 11.2571 6.36504 11.8039C5.45369 12.3507 4.69684 13.1209 4.16602 14.0416Z" stroke="#FFFEFE" stroke-width="1.75" stroke-linecap="round" stroke-linejoin="round"></path>
      <path id="Vector_2" d="M7.29262 15.0834C6.20848 15.6954 5.33184 16.6173 4.77507 17.7309C4.2183 18.8444 4.00678 20.0988 4.16762 21.3334C5.40216 21.4942 6.6566 21.2827 7.77014 20.7259C8.88368 20.1692 9.80556 19.2925 10.4176 18.2084" stroke="#FFFEFE" stroke-width="1.75" stroke-linecap="round" stroke-linejoin="round"></path>
      <path id="Vector_3" d="M14.584 9.87504C14.584 10.1513 14.6937 10.4163 14.8891 10.6116C15.0844 10.807 15.3494 10.9167 15.6257 10.9167C15.9019 10.9167 16.1669 10.807 16.3622 10.6116C16.5576 10.4163 16.6673 10.1513 16.6673 9.87504C16.6673 9.59877 16.5576 9.33382 16.3622 9.13847C16.1669 8.94312 15.9019 8.83337 15.6257 8.83337C15.3494 8.83337 15.0844 8.94312 14.8891 9.13847C14.6937 9.33382 14.584 9.59877 14.584 9.87504Z" stroke="#FFFEFE" stroke-width="1.75" stroke-linecap="round" stroke-linejoin="round"></path>
    </g>
    <defs>
      <clipPath id="clip0_521_4476">
        <rect width="25" height="25" fill="white" transform="translate(0 0.5)"></rect>
      </clipPath>
    </defs>
  </symbol>
   <symbol fill="none" xmlns="http://www.w3.org/2000/svg" viewBox="0 0 40 40" id="send">
    <g clip-path="url(#clip0_766_3517)">
      <path d="M17 23L34 5" stroke="#001966" stroke-linecap="round" stroke-linejoin="round"></path>
      <path d="M34 5L23.7112 34.4746C23.6417 34.6314 23.5302 34.7642 23.3899 34.8573C23.2496 34.9505 23.0864 35 22.9197 35C22.753 35 22.5898 34.9505 22.4495 34.8573C22.3092 34.7642 22.1977 34.6314 22.1283 34.4746L16.5882 23.0122L5.5079 17.2811C5.35636 17.2092 5.22793 17.0939 5.1379 16.9488C5.04786 16.8036 5 16.6348 5 16.4623C5 16.2899 5.04786 16.1211 5.1379 15.9759C5.22793 15.8308 5.35636 15.7154 5.5079 15.6436L34 5Z" stroke="#001966" stroke-linecap="round" stroke-linejoin="round"></path>
    </g>
    <defs>
      <clipPath id="clip0_766_3517">
        <rect width="40" height="40" rx="5" fill="white"></rect>
      </clipPath>
    </defs>
  </symbol>
  <symbol fill="none" xmlns="http://www.w3.org/2000/svg" viewBox="0 0 40 40" id="share">
    <g id="Share">
      <g clip-path="url(#clip0_27_1216)">
        <path id="Vector" d="M5 20C5 21.3261 5.52678 22.5979 6.46447 23.5355C7.40215 24.4732 8.67392 25 10 25C11.3261 25 12.5979 24.4732 13.5355 23.5355C14.4732 22.5979 15 21.3261 15 20C15 18.6739 14.4732 17.4021 13.5355 16.4645C12.5979 15.5268 11.3261 15 10 15C8.67392 15 7.40215 15.5268 6.46447 16.4645C5.52678 17.4021 5 18.6739 5 20Z" stroke="#001966" stroke-linecap="round" stroke-linejoin="round"></path>
        <path id="Vector_2" d="M25 10C25 11.3261 25.5268 12.5979 26.4645 13.5355C27.4021 14.4732 28.6739 15 30 15C31.3261 15 32.5979 14.4732 33.5355 13.5355C34.4732 12.5979 35 11.3261 35 10C35 8.67392 34.4732 7.40215 33.5355 6.46447C32.5979 5.52678 31.3261 5 30 5C28.6739 5 27.4021 5.52678 26.4645 6.46447C25.5268 7.40215 25 8.67392 25 10Z" stroke="#001966" stroke-linecap="round" stroke-linejoin="round"></path>
        <path id="Vector_3" d="M25 30C25 31.3261 25.5268 32.5979 26.4645 33.5355C27.4021 34.4732 28.6739 35 30 35C31.3261 35 32.5979 34.4732 33.5355 33.5355C34.4732 32.5979 35 31.3261 35 30C35 28.6739 34.4732 27.4021 33.5355 26.4645C32.5979 25.5268 31.3261 25 30 25C28.6739 25 27.4021 25.5268 26.4645 26.4645C25.5268 27.4021 25 28.6739 25 30Z" stroke="#001966" stroke-linecap="round" stroke-linejoin="round"></path>
        <path id="Vector_4" d="M14.5 17.8333L25.5 12.1666" stroke="#001966" stroke-linecap="round" stroke-linejoin="round"></path>
        <path id="Vector_5" d="M14.5 22.1666L25.5 27.8333" stroke="#001966" stroke-linecap="round" stroke-linejoin="round"></path>
      </g>
      <rect x="0.5" y="0.5" width="39" height="39" rx="4.5" stroke="#A3AFD1"></rect>
    </g>
    <defs>
      <clipPath id="clip0_27_1216">
        <rect width="40" height="40" rx="5" fill="white"></rect>
      </clipPath>
    </defs>
  </symbol>
  <symbol fill="none" xmlns="http://www.w3.org/2000/svg" viewBox="0 0 40 40" id="smile">
    <g id="Smile">
      <g clip-path="url(#clip0_27_1272)">
        <path id="Vector" d="M20 35C18.0302 35 16.0796 34.612 14.2597 33.8582C12.4399 33.1044 10.7863 31.9995 9.3934 30.6066C8.00052 29.2137 6.89563 27.5601 6.14181 25.7403C5.38799 23.9204 5 21.9698 5 20C5 18.0302 5.38799 16.0796 6.14181 14.2597C6.89563 12.4399 8.00052 10.7863 9.3934 9.3934C10.7863 8.00052 12.4399 6.89563 14.2597 6.14181C16.0796 5.38799 18.0302 5 20 5C23.9782 5 27.7936 6.58035 30.6066 9.3934C33.4196 12.2064 35 16.0218 35 20C35 23.9782 33.4196 27.7936 30.6066 30.6066C27.7936 33.4196 23.9782 35 20 35Z" stroke="#001966" stroke-linecap="round" stroke-linejoin="round"></path>
        <path id="Vector_2" d="M16.666 16.6666C15.8327 15 12.4993 15 11.666 16.6666" stroke="#001966" stroke-linecap="round" stroke-linejoin="round"></path>
        <path id="Vector_3" d="M28.334 16.6666C27.5007 15 24.1673 15 23.334 16.6666" stroke="#001966" stroke-linecap="round" stroke-linejoin="round"></path>
        <path id="Vector_4" d="M24.1673 25C23.6242 25.5543 22.9759 25.9947 22.2604 26.2954C21.545 26.596 20.7767 26.7509 20.0007 26.7509C19.2246 26.7509 18.4563 26.596 17.7409 26.2954C17.0254 25.9947 16.3771 25.5543 15.834 25" stroke="#001966" stroke-linecap="round" stroke-linejoin="round"></path>
      </g>
      <rect x="0.5" y="0.5" width="39" height="39" rx="4.5" stroke="#A3AFD1"></rect>
    </g>
    <defs>
      <clipPath id="clip0_27_1272">
        <rect width="40" height="40" rx="5" fill="white"></rect>
      </clipPath>
    </defs>
  </symbol>
  <symbol fill="none" xmlns="http://www.w3.org/2000/svg" viewBox="0 0 40 40" id="ticks">
    <g id="Frame" clip-path="url(#clip0_27_865)">
      <path id="Vector" d="M11.666 20L19.9993 28.3333L36.666 11.6666" stroke="#001966" stroke-linecap="round" stroke-linejoin="round"></path>
      <path id="Vector_2" d="M3 20.3333L11.3333 28.6667M19.6667 20.3333L28 12" stroke="#001966" stroke-linecap="round" stroke-linejoin="round"></path>
    </g>
    <defs>
      <clipPath id="clip0_27_865">
        <rect width="40" height="40" fill="white"></rect>
      </clipPath>
    </defs>
  </symbol>
  <symbol fill="none" xmlns="http://www.w3.org/2000/svg" viewBox="0 0 100 100" id="general">
    <path opacity="0.15" d="M21.9359 69.04C34.0326 67.28 33.8713 63.6 33.8713 61.2V57.36C29.5165 53.52 27.4197 46.96 27.4197 39.76V28.56C27.4197 18 33.5488 13.04 40.323 11.92L37.0972 11.6C29.1939 11.6 20.9681 16.24 20.9681 28.56V39.76C20.9681 46.96 22.581 53.52 27.4197 57.36V61.2C27.4197 63.6 27.581 67.44 15.4843 69.04C12.0844 69.4588 8.90723 70.9406 6.41328 73.2708C3.91932 75.601 2.23811 78.6584 1.61328 82V88.4H8.06489V82C8.06489 82 8.06489 71.12 21.9359 69.04Z" fill="#001966"></path>
    <path d="M46.7744 59.6C50.0569 59.1191 53.2938 58.3699 56.4518 57.36C61.4518 55.6 61.2905 53.04 61.2905 51.6V48.4M60.0002 14.8C62.6397 12.6709 65.9537 11.5373 69.3551 11.6C75.8067 11.6 83.8712 15.44 83.8712 25.36V34.64C83.8545 37.2586 83.2697 39.8429 82.1564 42.2172C81.0432 44.5915 79.4276 46.7003 77.4196 48.4V51.44C77.4196 53.36 77.2583 56.72 86.9357 58.64C89.6614 59.1326 92.188 60.3887 94.2172 62.2599C96.2464 64.1311 97.6934 66.5393 98.3873 69.2V75.6H82.2583" stroke="#001966" stroke-linecap="round" stroke-linejoin="round"></path>
    <path d="M58.7101 69.04C46.6133 67.44 46.7746 63.12 46.7746 60.88V57.2C51.1294 53.36 53.2262 46.96 53.2262 39.76V28.56C53.2262 16.24 45.0004 11.6 37.0972 11.6C29.1939 11.6 20.9681 16.24 20.9681 28.56V39.76C20.9681 46.96 23.0649 53.52 27.4197 57.36V61.2C27.4197 63.6 27.581 67.44 15.4842 69.04C12.0844 69.4588 8.90723 70.9406 6.41328 73.2708C3.91932 75.601 2.23811 78.6584 1.61328 82V88.4H72.581V82C72.581 82 72.581 70.96 58.7101 69.04Z" stroke="#001966" stroke-linecap="round" stroke-linejoin="round"></path>
  </symbol>
  <symbol viewBox="0 0 0 0" id="sprite">
    <symbol fill="none" xmlns="http://www.w3.org/2000/svg" viewBox="0 0 100 100" id="business">
      <g id="Business">
        <path id="Vector" opacity="0.2" d="M91.9359 23.2143H8.06489C6.35382 23.2143 4.71283 23.9668 3.50292 25.3064C2.293 26.6459 1.61328 28.4627 1.61328 30.3572V35.7143C1.61328 33.8199 2.293 32.0031 3.50292 30.6635C4.71283 29.324 6.35382 28.5714 8.06489 28.5714H91.9359C93.6469 28.5714 95.2879 29.324 96.4978 30.6635C97.7078 32.0031 98.3875 33.8199 98.3875 35.7143V30.3572C98.3875 28.4627 97.7078 26.6459 96.4978 25.3064C95.2879 23.9668 93.6469 23.2143 91.9359 23.2143Z" fill="#FFFEFE"></path>
        <path id="Vector_2" opacity="0.15" d="M5 70H44V81H5V70Z" fill="#001966"></path>
        <path id="Vector_3" opacity="0.15" d="M56 70H95V81H56V70Z" fill="#001966"></path>
        <path id="Vector_4" opacity="0.15" d="M44 77H56V81H44V77Z" fill="#001966"></path>
        <path id="Vector_5" d="M33.8713 23.2143V16.0714C33.8713 12.2826 35.2308 8.64899 37.6506 5.96989C40.0704 3.2908 43.3524 1.78571 46.7746 1.78571H53.2262C56.6483 1.78571 59.9303 3.2908 62.3501 5.96989C64.77 8.64899 66.1294 12.2826 66.1294 16.0714V23.0714M56.452 69.6428H98.3875V30.3571C98.3875 28.4627 97.7078 26.6459 96.4978 25.3064C95.2879 23.9668 93.6469 23.2143 91.9359 23.2143H8.06489C6.35382 23.2143 4.71283 23.9668 3.50292 25.3064C2.293 26.6459 1.61328 28.4627 1.61328 30.3571V69.6428H43.5488" stroke="#001966" stroke-linecap="round" stroke-linejoin="round"></path>
        <path id="Vector_6" d="M95.1614 69.6429V98.2143H4.83887V69.6429" stroke="#001966" stroke-linecap="round" stroke-linejoin="round"></path>
        <path id="Vector_7" d="M43.5488 62.5H56.4521V76.7857H43.5488V62.5Z" stroke="#001966" stroke-linecap="round" stroke-linejoin="round"></path>
      </g>
    </symbol>
    <symbol fill="none" xmlns="http://www.w3.org/2000/svg" viewBox="0 0 100 100" id="dating">
      <path opacity="0.15" d="M59.6772 66.129C59.6471 64.1926 60.1221 62.2816 61.0554 60.5847C61.9888 58.8877 63.3482 57.4632 64.9998 56.4516H64.5159C63.0544 56.4303 61.603 56.6971 60.2446 57.2367C58.8861 57.7764 57.6474 58.5784 56.5989 59.5968C55.5505 60.6153 54.7129 61.8304 54.1341 63.1726C53.5553 64.5148 53.2466 65.9578 53.2256 67.4194V67.7419C53.2256 82.2581 75.8062 98.3871 75.8062 98.3871L79.9998 95C74.3546 90.6452 59.6772 77.9032 59.6772 66.129Z" fill="#001966"></path>
      <path opacity="0.15" d="M53.2262 67.7419C53.2429 66.3595 53.5164 64.9922 54.0326 63.7097C52.7978 63.1405 51.7391 62.249 50.9681 61.129C49.2037 62.0938 47.7327 63.5173 46.7107 65.2492C45.6886 66.981 45.1534 68.9568 45.1617 70.9677C45.3076 74.3851 46.3056 77.7118 48.0649 80.6451H58.0649C55.1617 75.8064 53.2262 72.0968 53.2262 67.7419ZM30.6455 43.5484C31.9359 48.3871 37.2584 52.0968 40.323 54.8387V58.0645C40.323 60.6451 39.5165 63.871 26.452 66.4516C22.8104 67.0673 19.4306 68.7417 16.7344 71.2658C14.0382 73.7899 12.1449 77.052 11.2907 80.6451H1.61328C1.61328 80.6451 1.61328 69.3548 16.7746 66.4516C31.9359 63.5484 30.6455 60.6451 30.6455 58.0645V54.8387C27.4089 51.8094 25.1605 47.8748 24.1939 43.5484C20.1617 43.5484 17.7423 38.7097 17.7423 33.871C17.7423 32.5806 17.7423 27.4193 20.9681 27.4193C18.3875 17.0968 20.323 6.4516 27.4197 6.4516C33.2983 2.3874 40.5491 0.82123 47.581 2.09676C43.8339 2.84433 40.2712 4.32423 37.0972 6.4516C30.0004 6.4516 24.8391 17.0968 27.4197 27.4193C27.4197 27.4193 25.8068 40.3226 30.6455 43.5484Z" fill="#001966"></path>
      <path d="M58.0649 80.6452H1.61328C1.61328 80.6452 1.61328 69.3549 16.7746 66.4516C31.9359 63.5484 30.6455 60.6452 30.6455 58.0645V54.8387C27.4516 51.7759 25.2111 47.8551 24.1939 43.5484C20.1617 43.5484 17.7423 38.7097 17.7423 33.871C17.7423 32.5807 17.7423 27.4194 20.9681 27.4194C18.3875 17.0968 20.323 6.45162 27.4197 6.45162C44.1939 -4.8387 67.7423 4.19356 59.6778 27.4194C62.9036 27.4194 62.9036 32.5807 62.9036 33.871C62.9036 38.7097 60.4842 43.5484 56.452 43.5484C55.4551 47.863 53.2115 51.7893 50.0004 54.8387V58.0645C50.0574 59.2742 50.4705 60.4401 51.1879 61.4157C51.9053 62.3914 52.895 63.1334 54.0326 63.5484" stroke="#001966" stroke-linecap="round" stroke-linejoin="round"></path>
      <path d="M87.0966 56.4516C84.6263 56.5219 82.233 57.3265 80.2221 58.7629C78.2112 60.1993 76.6738 62.2022 75.8062 64.5161C74.9386 62.2022 73.4013 60.1993 71.3903 58.7629C69.3794 57.3265 66.9861 56.5219 64.5159 56.4516C63.0544 56.4303 61.603 56.6971 60.2446 57.2367C58.8861 57.7764 57.6474 58.5784 56.5989 59.5968C55.5505 60.6153 54.7129 61.8304 54.1341 63.1726C53.5553 64.5148 53.2466 65.9578 53.2256 67.4194V67.7419C53.2256 82.2581 75.8062 98.3871 75.8062 98.3871C75.8062 98.3871 98.3869 82.2581 98.3869 67.7419C98.4082 66.2804 98.1414 64.829 97.6018 63.4706C97.0621 62.1122 96.2601 60.8734 95.2417 59.825C94.2232 58.7765 93.0081 57.939 91.6659 57.3602C90.3237 56.7814 88.8807 56.4727 87.4191 56.4516H87.0966Z" stroke="#001966" stroke-linecap="round" stroke-linejoin="round"></path>
    </symbol>
    <symbol fill="none" xmlns="http://www.w3.org/2000/svg" viewBox="0 0 100 100" id="news">
      <g id="News">
        <path id="Vector" d="M27.4197 85.4839C27.4197 88.906 26.0603 92.188 23.6405 94.6078C21.2206 97.0277 17.9387 98.3871 14.5165 98.3871C11.0944 98.3871 7.81237 97.0277 5.39255 94.6078C2.97272 92.188 1.61328 88.906 1.61328 85.4839V14.5161H27.4197V85.4839Z" fill="#F4F6FF"></path>
        <path id="Vector_2" opacity="0.15" d="M14.5166 98.3871H85.4843C88.0502 98.3819 90.5562 97.6118 92.6822 96.1754C94.8082 94.7389 96.4577 92.7012 97.4198 90.3226H26.4521C25.4899 92.7012 23.8404 94.7389 21.7144 96.1754C19.5884 97.6118 17.0824 98.3819 14.5166 98.3871Z" fill="#001966"></path>
        <path id="Vector_3" d="M14.5166 98.3871H85.4843C88.9065 98.3871 92.1885 97.0277 94.6083 94.6078C97.0281 92.188 98.3876 88.906 98.3876 85.4839V1.61292H27.4198V14.5161" stroke="#001966" stroke-linecap="round" stroke-linejoin="round"></path>
        <path id="Vector_4" d="M85.4842 14.5161H40.323M85.4842 66.129H40.323M85.4842 79.0323H40.323M53.2262 27.4194H43.5488M53.2262 40.3226H40.323M53.2262 53.2258H40.323M27.4197 85.4839C27.4197 88.906 26.0603 92.188 23.6405 94.6078C21.2206 97.0277 17.9387 98.3871 14.5165 98.3871C11.0944 98.3871 7.81237 97.0277 5.39255 94.6078C2.97272 92.188 1.61328 88.906 1.61328 85.4839V14.5161H27.4197V85.4839ZM66.1294 27.4194H85.4842V53.2258H66.1294V27.4194Z" stroke="#001966" stroke-linecap="round" stroke-linejoin="round"></path>
      </g>
    </symbol>
    <symbol fill="none" xmlns="http://www.w3.org/2000/svg" viewBox="0 0 100 100" id="private">
      <g id="New chat">
        <path id="Vector" opacity="0.18" d="M8.06489 75.8065V4.83872C8.06489 3.98318 8.40475 3.16269 9.00971 2.55773C9.61467 1.95278 10.4352 1.61292 11.2907 1.61292H4.83909C3.98355 1.61292 3.16305 1.95278 2.5581 2.55773C1.95314 3.16269 1.61328 3.98318 1.61328 4.83872V75.8065C1.61328 76.662 1.95314 77.4825 2.5581 78.0875C3.16305 78.6924 3.98355 79.0323 4.83909 79.0323H11.2907C10.4352 79.0323 9.61467 78.6924 9.00971 78.0875C8.40475 77.4825 8.06489 76.662 8.06489 75.8065Z" fill="#001966"></path>
        <path id="Vector_2" opacity="0.18" d="M47.5804 79.0323C46.1293 73.5596 46.5288 67.7606 48.7168 62.5387C50.9048 57.3167 54.7583 52.965 59.6772 50.1613C53.4338 50.9479 47.693 53.9885 43.5345 58.7114C39.376 63.4342 37.0865 69.5138 37.0965 75.8064C37.0774 76.8841 37.1313 77.9619 37.2578 79.0323H47.5804Z" fill="#001966"></path>
        <path id="Vector_3" d="M72.581 59.6774V85.4839M47.581 79.0323H4.83909C3.98355 79.0323 3.16305 78.6924 2.5581 78.0875C1.95314 77.4825 1.61328 76.662 1.61328 75.8065V4.83872C1.61328 3.98318 1.95314 3.16269 2.5581 2.55773C3.16305 1.95278 3.98355 1.61292 4.83909 1.61292H82.2584C83.114 1.61292 83.9345 1.95278 84.5394 2.55773C85.1444 3.16269 85.4842 3.98318 85.4842 4.83872V50.1613M72.581 40.3226H46.7746M72.581 14.5161H46.7746" stroke="#001966" stroke-linecap="round" stroke-linejoin="round"></path>
        <path id="Vector_4" d="M16.1295 16.129C17.0203 16.129 17.7424 15.4069 17.7424 14.5161C17.7424 13.6254 17.0203 12.9032 16.1295 12.9032C15.2387 12.9032 14.5166 13.6254 14.5166 14.5161C14.5166 15.4069 15.2387 16.129 16.1295 16.129Z" stroke="#001966" stroke-linecap="round" stroke-linejoin="round"></path>
        <path id="Vector_5" d="M16.1295 41.9355C17.0203 41.9355 17.7424 41.2134 17.7424 40.3226C17.7424 39.4318 17.0203 38.7097 16.1295 38.7097C15.2387 38.7097 14.5166 39.4318 14.5166 40.3226C14.5166 41.2134 15.2387 41.9355 16.1295 41.9355Z" stroke="#001966" stroke-linecap="round" stroke-linejoin="round"></path>
        <path id="Vector_6" d="M16.1295 67.7419C17.0203 67.7419 17.7424 67.0198 17.7424 66.129C17.7424 65.2382 17.0203 64.5161 16.1295 64.5161C15.2387 64.5161 14.5166 65.2382 14.5166 66.129C14.5166 67.0198 15.2387 67.7419 16.1295 67.7419Z" stroke="#001966" stroke-linecap="round" stroke-linejoin="round"></path>
        <path id="Vector_7" d="M85.4842 27.4193H1.61328M55.4842 53.2258H1.61328" stroke="#001966" stroke-linecap="round" stroke-linejoin="round"></path>
        <path id="Vector_8" d="M72.5809 98.3871C86.8334 98.3871 98.3873 86.8332 98.3873 72.5807C98.3873 58.3281 86.8334 46.7742 72.5809 46.7742C58.3284 46.7742 46.7744 58.3281 46.7744 72.5807C46.7744 86.8332 58.3284 98.3871 72.5809 98.3871Z" stroke="#001966" stroke-linecap="round" stroke-linejoin="round"></path>
        <path id="Vector_9" d="M59.6777 72.5806H85.4842" stroke="#001966" stroke-linecap="round" stroke-linejoin="round"></path>
      </g>
    </symbol>
    <symbol fill="none" xmlns="http://www.w3.org/2000/svg" viewBox="0 0 100 100" id="work">
      <g id="Work">
        <path id="Vector" opacity="0.15" d="M8.06445 1.61292H20.9677V66.129H8.06445V1.61292Z" fill="#001966"></path>
        <path id="Vector_2" d="M50.0004 98.3871V66.129M50.0004 66.129L24.1939 95.1613M50.0004 66.129L75.8068 95.1613M1.61328 66.129H98.3875M8.06489 66.129V1.61292H91.9359V66.129M8.06489 14.5161H91.9359" stroke="#001966" stroke-linecap="round" stroke-linejoin="round"></path>
      </g>
    </symbol>
  </symbol>
</svg>
