<svg width="101" height="100" viewBox="0 0 101 100" fill="none" xmlns="http://www.w3.org/2000/svg">
<path opacity="0.15" d="M63.2423 79.8452L52.1133 72.5895H34.3713L46.6294 80.6514H63.081L63.2423 79.8452ZM65.1778 69.3647L64.2101 66.4624L56.7907 64.5276H56.6294L55.1778 69.3647H65.1778ZM31.1455 43.5666C32.4359 48.4038 37.7584 52.1122 40.823 54.8533V58.078C40.823 60.6579 40.0165 63.8826 26.952 66.4624C23.3104 67.078 19.9306 68.7518 17.2344 71.275C14.5382 73.7983 12.6449 77.0594 11.7907 80.6514H2.11328C2.11328 80.6514 2.11328 69.3647 17.2746 66.4624C32.4359 63.5602 31.1455 60.6579 31.1455 58.078V54.8533C27.9089 51.825 25.6605 47.8917 24.6939 43.5666C20.6617 43.5666 18.2423 38.7295 18.2423 33.8923C18.2423 32.6024 18.2423 27.4428 21.4681 27.4428C18.8875 17.1235 20.823 6.48179 27.9197 6.48179C33.7983 2.4189 41.0491 0.85324 48.081 2.12836C44.3339 2.87569 40.7712 4.35511 37.5972 6.48179C30.5004 6.48179 25.3391 17.1235 27.9197 27.4428C27.9197 27.4428 26.3068 40.3418 31.1455 43.5666Z" fill="#001966"/>
<path d="M63.081 80.6514H2.11328C2.11328 80.6514 2.11328 69.3647 17.2746 66.4624C32.4359 63.5602 31.1455 60.6579 31.1455 58.0781V54.8533C27.9516 51.7915 25.7111 47.8719 24.6939 43.5666C20.6617 43.5666 18.2423 38.7295 18.2423 33.8923C18.2423 32.6024 18.2423 27.4428 21.4681 27.4428C18.8875 17.1235 20.823 6.48179 27.9197 6.48179C44.6939 -4.80489 68.2423 4.06322 60.1778 27.4428C63.4036 27.4428 63.4036 32.6024 63.4036 33.8923C63.4036 38.7295 60.9842 43.5666 56.952 43.5666C55.9551 47.8799 53.7115 51.8049 50.5004 54.8533V58.0781C50.5004 59.8517 51.3068 62.9152 56.7907 64.5276L67.7584 67.2686" stroke="#001966" stroke-linecap="round" stroke-linejoin="round"/>
<path d="M73.0809 86.9397L57.1131 98.3876L63.2422 79.8452L47.2744 69.3647H66.9518L73.0809 50.0161L79.2099 69.3647H98.8873L82.9196 79.8452L89.0486 98.3876L73.0809 86.9397Z" stroke="#001966" stroke-linecap="round" stroke-linejoin="round"/>
</svg>
