<svg width="100" height="100" viewBox="0 0 100 100" fill="none" xmlns="http://www.w3.org/2000/svg">
<path opacity="0.15" d="M25.0002 84.4828C31.6669 81.0345 43.3336 79.3103 45.0002 70.6897C40.0002 72.4138 23.3336 70.6897 23.3336 48.2759C23.3336 37.931 35.0002 39.6552 40.0002 24.1379C36.6669 31.0345 26.6669 32.7586 23.3336 32.7586C23.3336 27.5862 28.3336 17.2414 35.0002 15.5172C24.5002 15.5172 18.3336 25.8621 18.3336 36.2069C18.3336 59.8276 13.8336 61.5517 8.33355 67.2414C14.874 69.0702 21.5733 70.2253 28.3336 70.6897V74.1379C28.3336 76.8966 26.5002 80.5172 13.3336 84.4828C0.166887 88.4483 1.66689 98.2759 1.66689 98.2759H13.3336C13.3336 91.3793 18.3336 87.931 25.0002 84.4828Z" fill="#001966"/>
<path d="M85.0003 1.72415V29.3104M71.667 15.5173H98.3337M58.3337 36.2069C58.3337 59.8276 62.8337 61.5517 68.3337 67.2414C61.7932 69.0702 55.0939 70.2253 48.3337 70.6897V74.1379C48.3337 76.8966 50.167 80.5173 63.3337 84.4828C76.5003 88.4483 75.0003 98.2759 75.0003 98.2759H1.66699C1.66699 98.2759 1.66699 87.931 13.3337 84.4828C25.0003 81.0345 28.3337 76.8966 28.3337 74.1379V70.6897C21.5734 70.2253 14.8741 69.0702 8.33366 67.2414C13.8337 61.5517 18.3337 59.8276 18.3337 36.2069C18.3337 25.8621 24.5003 15.5173 35.0003 15.5173C45.5003 15.5173 58.3337 16.2069 58.3337 36.2069Z" stroke="#001966" stroke-linecap="round" stroke-linejoin="round"/>
</svg>
