<svg width="101" height="100" viewBox="0 0 101 100" fill="none" xmlns="http://www.w3.org/2000/svg">
<g clip-path="url(#clip0_126_780)">
<g opacity="0.15">
<path d="M53.7262 50.5172C52.0394 49.9716 50.2565 49.8557 48.5203 50.1788C46.7841 50.5018 45.1427 51.2548 43.7275 52.3776C42.3124 53.5003 41.1628 54.9616 40.3707 56.6445C39.5786 58.3274 39.166 60.1851 39.166 62.069C39.166 63.9528 39.5786 65.8106 40.3707 67.4934C41.1628 69.1763 42.3124 70.6376 43.7275 71.7603C45.1427 72.8831 46.7841 73.6361 48.5203 73.9592C50.2565 74.2822 52.0394 74.1663 53.7262 73.6207C51.4065 72.8704 49.3743 71.3421 47.9299 69.2618C46.4856 67.1815 45.7057 64.6596 45.7057 62.069C45.7057 59.4783 46.4856 56.9564 47.9299 54.8761C49.3743 52.7958 51.4065 51.2675 53.7262 50.5172Z" fill="#001966"/>
<path d="M31.1455 94.8276V98.2759H37.5971V94.8276C37.6094 89.9477 39.2348 85.2296 42.1862 81.5067C45.1376 77.7839 49.225 75.2961 53.7262 74.4828L50.5004 74.1379C45.3802 74.183 40.4817 76.3773 36.861 80.2476C33.2404 84.1179 31.1877 89.3543 31.1455 94.8276ZM79.5326 12.069C79.5182 9.91704 80.1319 7.81386 81.2883 6.05234C82.4447 4.29082 84.0862 2.95866 85.9842 2.24139C84.7698 1.78788 83.483 1.59775 82.199 1.68211C80.9151 1.76647 79.6597 2.12362 78.5064 2.73269C77.3531 3.34175 76.3249 4.1905 75.482 5.22931C74.6391 6.26812 73.9985 7.47614 73.5975 8.78273C73.1965 10.0893 73.0432 11.4683 73.1466 12.8389C73.25 14.2096 73.608 15.5445 74.1997 16.7655C74.7913 17.9865 75.6048 19.0692 76.5925 19.9502C77.5802 20.8312 78.7223 21.4929 79.952 21.8966C80.8568 22.2229 81.8036 22.3974 82.7584 22.4138C73.8875 22.4138 66.6294 29.3104 66.6294 43.1035H73.081C73.081 31.0345 78.5649 24.3104 85.9842 22.7586L82.7584 22.4138C83.8531 22.4332 84.9431 22.2584 85.9842 21.8966C84.0862 21.1793 82.4447 19.8471 81.2883 18.0856C80.1319 16.3241 79.5182 14.2209 79.5326 12.069ZM21.4681 21.7241C19.5889 21.0062 17.9633 19.6848 16.8139 17.9409C15.6645 16.1971 15.0476 14.116 15.0476 11.9828C15.0476 9.84953 15.6645 7.76846 16.8139 6.02459C17.9633 4.28071 19.5889 2.95932 21.4681 2.24139C19.0451 1.44605 16.427 1.69862 14.1763 2.94481C11.9257 4.191 10.2223 6.33132 9.43218 8.90576C8.64207 11.4802 8.82836 14.2832 9.951 16.7124C11.0736 19.1416 13.043 21.003 15.4359 21.8966C16.3407 22.2229 17.2874 22.3974 18.2423 22.4138C9.37135 22.4138 2.11328 29.3104 2.11328 43.1035H8.56489C8.56489 31.0345 14.0488 24.3104 21.4681 22.7586L18.2423 22.4138C19.3465 22.3824 20.4375 22.1491 21.4681 21.7241Z" fill="#001966"/>
</g>
<path d="M50.5003 74.1379C56.7358 74.1379 61.7906 68.7345 61.7906 62.069C61.7906 55.4035 56.7358 50 50.5003 50C44.2648 50 39.21 55.4035 39.21 62.069C39.21 68.7345 44.2648 74.1379 50.5003 74.1379Z" stroke="#001966" stroke-linecap="round" stroke-linejoin="round"/>
<path d="M50.5003 74.1379C45.3802 74.183 40.4816 76.3773 36.861 80.2476C33.2403 84.1179 31.1877 89.3543 31.1455 94.8276V98.2759H69.8552V94.8276C69.813 89.3543 67.7603 84.1179 64.1397 80.2476C60.5191 76.3773 55.6205 74.183 50.5003 74.1379Z" stroke="#001966" stroke-linecap="round" stroke-linejoin="round"/>
<path d="M82.7585 22.4138C88.1032 22.4138 92.4359 17.7823 92.4359 12.069C92.4359 6.35569 88.1032 1.72415 82.7585 1.72415C77.4138 1.72415 73.0811 6.35569 73.0811 12.069C73.0811 17.7823 77.4138 22.4138 82.7585 22.4138Z" stroke="#001966" stroke-linecap="round" stroke-linejoin="round"/>
<path d="M98.887 43.1034C98.887 30.1724 91.6289 22.4138 82.7579 22.4138C73.887 22.4138 66.6289 30.1724 66.6289 43.1034H98.887Z" stroke="#001966" stroke-linecap="round" stroke-linejoin="round"/>
<path d="M18.2419 22.4138C23.5866 22.4138 27.9193 17.7823 27.9193 12.069C27.9193 6.35569 23.5866 1.72415 18.2419 1.72415C12.8972 1.72415 8.56445 6.35569 8.56445 12.069C8.56445 17.7823 12.8972 22.4138 18.2419 22.4138Z" stroke="#001966" stroke-linecap="round" stroke-linejoin="round"/>
<path d="M18.2423 53.4483L31.1455 67.2414M82.7584 53.4483L69.8552 67.2414M37.5972 18.9655H63.4036M34.3713 43.1034C34.3713 30.1724 27.1133 22.4138 18.2423 22.4138C9.37135 22.4138 2.11328 30.1724 2.11328 43.1034H34.3713Z" stroke="#001966" stroke-linecap="round" stroke-linejoin="round"/>
</g>
<defs>
<clipPath id="clip0_126_780">
<rect width="100" height="100" fill="white" transform="translate(0.5)"/>
</clipPath>
</defs>
</svg>
